<?xml version="1.0" encoding="UTF-8"?>
<!--Generator: Apple Native CoreSVG 123-->
<!DOCTYPE svg
PUBLIC "-//W3C//DTD SVG 1.1//EN"
       "http://www.w3.org/Graphics/SVG/1.1/DTD/svg11.dtd">
<svg version="1.1" xmlns="http://www.w3.org/2000/svg" xmlns:xlink="http://www.w3.org/1999/xlink" width="3300" height="2200">
 <!--glyph: "uni100176.medium", point size: 100.000000, font version: "Version 15.0d7e11", template writer version: "5"-->
 <g id="Notes">
  <rect height="2200" id="artboard" style="fill:white;opacity:1" width="3300" x="0" y="0"/>
  <line id="" style="fill:none;stroke:black;opacity:1;stroke-width:0.5;" x1="263" x2="3036" y1="292" y2="292"/>
  <text style="stroke:none;fill:black;font-family:-apple-system,&quot;SF Pro Display&quot;,&quot;SF Pro Text&quot;,Helvetica,sans-serif;font-weight:bold;" transform="matrix(1 0 0 1 263 322)">Weight/Scale Variations</text>
  <text style="stroke:none;fill:black;font-family:-apple-system,&quot;SF Pro Display&quot;,&quot;SF Pro Text&quot;,Helvetica,sans-serif;text-anchor:middle;" transform="matrix(1 0 0 1 559.711 322)">Ultralight</text>
  <text style="stroke:none;fill:black;font-family:-apple-system,&quot;SF Pro Display&quot;,&quot;SF Pro Text&quot;,Helvetica,sans-serif;text-anchor:middle;" transform="matrix(1 0 0 1 856.422 322)">Thin</text>
  <text style="stroke:none;fill:black;font-family:-apple-system,&quot;SF Pro Display&quot;,&quot;SF Pro Text&quot;,Helvetica,sans-serif;text-anchor:middle;" transform="matrix(1 0 0 1 1153.13 322)">Light</text>
  <text style="stroke:none;fill:black;font-family:-apple-system,&quot;SF Pro Display&quot;,&quot;SF Pro Text&quot;,Helvetica,sans-serif;text-anchor:middle;" transform="matrix(1 0 0 1 1449.84 322)">Regular</text>
  <text style="stroke:none;fill:black;font-family:-apple-system,&quot;SF Pro Display&quot;,&quot;SF Pro Text&quot;,Helvetica,sans-serif;text-anchor:middle;" transform="matrix(1 0 0 1 1746.56 322)">Medium</text>
  <text style="stroke:none;fill:black;font-family:-apple-system,&quot;SF Pro Display&quot;,&quot;SF Pro Text&quot;,Helvetica,sans-serif;text-anchor:middle;" transform="matrix(1 0 0 1 2043.27 322)">Semibold</text>
  <text style="stroke:none;fill:black;font-family:-apple-system,&quot;SF Pro Display&quot;,&quot;SF Pro Text&quot;,Helvetica,sans-serif;text-anchor:middle;" transform="matrix(1 0 0 1 2339.98 322)">Bold</text>
  <text style="stroke:none;fill:black;font-family:-apple-system,&quot;SF Pro Display&quot;,&quot;SF Pro Text&quot;,Helvetica,sans-serif;text-anchor:middle;" transform="matrix(1 0 0 1 2636.69 322)">Heavy</text>
  <text style="stroke:none;fill:black;font-family:-apple-system,&quot;SF Pro Display&quot;,&quot;SF Pro Text&quot;,Helvetica,sans-serif;text-anchor:middle;" transform="matrix(1 0 0 1 2933.4 322)">Black</text>
  <line id="" style="fill:none;stroke:black;opacity:1;stroke-width:0.5;" x1="263" x2="3036" y1="1903" y2="1903"/>
  <g id="" transform="matrix(1 0 0 1 263 1933)">
   <path d="M 9.24805 0.830078 C 13.5547 0.830078 17.1387 -2.74414 17.1387 -7.05078 C 17.1387 -11.3574 13.5449 -14.9316 9.23828 -14.9316 C 4.94141 -14.9316 1.36719 -11.3574 1.36719 -7.05078 C 1.36719 -2.74414 4.95117 0.830078 9.24805 0.830078 Z M 9.24805 -0.654297 C 5.70312 -0.654297 2.87109 -3.49609 2.87109 -7.05078 C 2.87109 -10.6055 5.69336 -13.4473 9.23828 -13.4473 C 12.793 -13.4473 15.6348 -10.6055 15.6445 -7.05078 C 15.6543 -3.49609 12.8027 -0.654297 9.24805 -0.654297 Z M 9.22852 -3.42773 C 9.69727 -3.42773 9.9707 -3.74023 9.9707 -4.25781 L 9.9707 -6.31836 L 12.1973 -6.31836 C 12.6953 -6.31836 13.0371 -6.57227 13.0371 -7.04102 C 13.0371 -7.51953 12.7148 -7.7832 12.1973 -7.7832 L 9.9707 -7.7832 L 9.9707 -10.0098 C 9.9707 -10.5273 9.69727 -10.8496 9.22852 -10.8496 C 8.75977 -10.8496 8.50586 -10.5078 8.50586 -10.0098 L 8.50586 -7.7832 L 6.29883 -7.7832 C 5.78125 -7.7832 5.44922 -7.51953 5.44922 -7.04102 C 5.44922 -6.57227 5.80078 -6.31836 6.29883 -6.31836 L 8.50586 -6.31836 L 8.50586 -4.25781 C 8.50586 -3.75977 8.75977 -3.42773 9.22852 -3.42773 Z"/>
  </g>
  <g id="" transform="matrix(1 0 0 1 281.506 1933)">
   <path d="M 11.709 2.91016 C 17.1582 2.91016 21.6699 -1.60156 21.6699 -7.05078 C 21.6699 -12.4902 17.1484 -17.0117 11.6992 -17.0117 C 6.25977 -17.0117 1.74805 -12.4902 1.74805 -7.05078 C 1.74805 -1.60156 6.26953 2.91016 11.709 2.91016 Z M 11.709 1.25 C 7.09961 1.25 3.41797 -2.44141 3.41797 -7.05078 C 3.41797 -11.6504 7.08984 -15.3516 11.6992 -15.3516 C 16.3086 -15.3516 20 -11.6504 20.0098 -7.05078 C 20.0195 -2.44141 16.3184 1.25 11.709 1.25 Z M 11.6895 -2.41211 C 12.207 -2.41211 12.5195 -2.77344 12.5195 -3.33984 L 12.5195 -6.23047 L 15.5762 -6.23047 C 16.123 -6.23047 16.5039 -6.51367 16.5039 -7.03125 C 16.5039 -7.55859 16.1426 -7.86133 15.5762 -7.86133 L 12.5195 -7.86133 L 12.5195 -10.9277 C 12.5195 -11.5039 12.207 -11.8555 11.6895 -11.8555 C 11.1719 -11.8555 10.8789 -11.4844 10.8789 -10.9277 L 10.8789 -7.86133 L 7.83203 -7.86133 C 7.26562 -7.86133 6.89453 -7.55859 6.89453 -7.03125 C 6.89453 -6.51367 7.28516 -6.23047 7.83203 -6.23047 L 10.8789 -6.23047 L 10.8789 -3.33984 C 10.8789 -2.79297 11.1719 -2.41211 11.6895 -2.41211 Z"/>
  </g>
  <g id="" transform="matrix(1 0 0 1 304.924 1933)">
   <path d="M 14.9707 5.67383 C 21.9336 5.67383 27.6953 -0.078125 27.6953 -7.04102 C 27.6953 -14.0039 21.9238 -19.7559 14.9609 -19.7559 C 8.00781 -19.7559 2.25586 -14.0039 2.25586 -7.04102 C 2.25586 -0.078125 8.01758 5.67383 14.9707 5.67383 Z M 14.9707 3.85742 C 8.93555 3.85742 4.08203 -1.00586 4.08203 -7.04102 C 4.08203 -13.0762 8.92578 -17.9395 14.9609 -17.9395 C 21.0059 -17.9395 25.8594 -13.0762 25.8691 -7.04102 C 25.8789 -1.00586 21.0156 3.85742 14.9707 3.85742 Z M 14.9512 -1.06445 C 15.5176 -1.06445 15.8691 -1.45508 15.8691 -2.06055 L 15.8691 -6.13281 L 20.1074 -6.13281 C 20.6934 -6.13281 21.1133 -6.46484 21.1133 -7.02148 C 21.1133 -7.59766 20.7227 -7.93945 20.1074 -7.93945 L 15.8691 -7.93945 L 15.8691 -12.1875 C 15.8691 -12.8027 15.5176 -13.1934 14.9512 -13.1934 C 14.3848 -13.1934 14.0625 -12.7832 14.0625 -12.1875 L 14.0625 -7.93945 L 9.83398 -7.93945 C 9.21875 -7.93945 8.80859 -7.59766 8.80859 -7.02148 C 8.80859 -6.46484 9.23828 -6.13281 9.83398 -6.13281 L 14.0625 -6.13281 L 14.0625 -2.06055 C 14.0625 -1.47461 14.3848 -1.06445 14.9512 -1.06445 Z"/>
  </g>
  <text style="stroke:none;fill:black;font-family:-apple-system,&quot;SF Pro Display&quot;,&quot;SF Pro Text&quot;,Helvetica,sans-serif;font-weight:bold;" transform="matrix(1 0 0 1 263 1953)">Design Variations</text>
  <text style="stroke:none;fill:black;font-family:-apple-system,&quot;SF Pro Display&quot;,&quot;SF Pro Text&quot;,Helvetica,sans-serif;" transform="matrix(1 0 0 1 263 1971)">Symbols are supported in up to nine weights and three scales.</text>
  <text style="stroke:none;fill:black;font-family:-apple-system,&quot;SF Pro Display&quot;,&quot;SF Pro Text&quot;,Helvetica,sans-serif;" transform="matrix(1 0 0 1 263 1989)">For optimal layout with text and other symbols, vertically align</text>
  <text style="stroke:none;fill:black;font-family:-apple-system,&quot;SF Pro Display&quot;,&quot;SF Pro Text&quot;,Helvetica,sans-serif;" transform="matrix(1 0 0 1 263 2007)">symbols with the adjacent text.</text>
  <rect height="14" id="" style="fill:#00AEEF;stroke:none;opacity:0.4;" width="3" x="776" y="1919"/>
  <g id="" transform="matrix(1 0 0 1 779 1933)">
   <path d="M 10.5273 0 L 12.373 0 L 7.17773 -14.0918 L 5.43945 -14.0918 L 0.244141 0 L 2.08984 0 L 3.50586 -4.0332 L 9.11133 -4.0332 Z M 6.2793 -11.9531 L 6.33789 -11.9531 L 8.59375 -5.52734 L 4.02344 -5.52734 Z"/>
  </g>
  <rect height="14" id="" style="fill:#00AEEF;stroke:none;opacity:0.4;" width="3" x="791.617" y="1919"/>
  <text style="stroke:none;fill:black;font-family:-apple-system,&quot;SF Pro Display&quot;,&quot;SF Pro Text&quot;,Helvetica,sans-serif;font-weight:bold;" transform="matrix(1 0 0 1 776 1953)">Margins</text>
  <text style="stroke:none;fill:black;font-family:-apple-system,&quot;SF Pro Display&quot;,&quot;SF Pro Text&quot;,Helvetica,sans-serif;" transform="matrix(1 0 0 1 776 1971)">Leading and trailing margins on the left and right side of each symbol</text>
  <text style="stroke:none;fill:black;font-family:-apple-system,&quot;SF Pro Display&quot;,&quot;SF Pro Text&quot;,Helvetica,sans-serif;" transform="matrix(1 0 0 1 776 1989)">can be adjusted by modifying the width of the blue rectangles.</text>
  <text style="stroke:none;fill:black;font-family:-apple-system,&quot;SF Pro Display&quot;,&quot;SF Pro Text&quot;,Helvetica,sans-serif;" transform="matrix(1 0 0 1 776 2007)">Modifications are automatically applied proportionally to all</text>
  <text style="stroke:none;fill:black;font-family:-apple-system,&quot;SF Pro Display&quot;,&quot;SF Pro Text&quot;,Helvetica,sans-serif;" transform="matrix(1 0 0 1 776 2025)">scales and weights.</text>
  <g id="" transform="matrix(1 0 0 1 1289 1933)">
   <path d="M 2.83203 3.11523 L 4.375 4.6582 C 5.22461 5.48828 6.19141 5.41992 7.06055 4.46289 L 17.2754 -6.66016 C 17.7051 -6.36719 18.0957 -6.37695 18.5645 -6.47461 L 19.6094 -6.68945 L 20.3027 -5.99609 L 20.2539 -5.47852 C 20.1855 -4.95117 20.3516 -4.53125 20.8496 -4.0332 L 21.6602 -3.22266 C 22.168 -2.71484 22.8223 -2.68555 23.3008 -3.16406 L 26.5527 -6.41602 C 27.0312 -6.89453 27.0117 -7.54883 26.5039 -8.05664 L 25.6836 -8.87695 C 25.1855 -9.375 24.7754 -9.55078 24.2383 -9.47266 L 23.7109 -9.41406 L 23.0566 -10.0781 L 23.3398 -11.2207 C 23.4863 -11.7871 23.3398 -12.2559 22.7148 -12.8613 L 20.3027 -15.2539 C 16.7578 -18.7793 12.2266 -18.6719 9.11133 -15.5371 C 8.69141 -15.1074 8.64258 -14.5215 8.91602 -14.0918 C 9.15039 -13.7207 9.62891 -13.4961 10.2734 -13.6621 C 11.7871 -14.043 13.3008 -13.9258 14.7852 -12.9199 L 14.1602 -11.3379 C 13.9258 -10.752 13.9453 -10.2734 14.1797 -9.83398 L 3.01758 0.439453 C 2.08008 1.30859 1.97266 2.25586 2.83203 3.11523 Z M 10.6738 -15.1465 C 13.3398 -17.1387 16.6504 -16.8262 19.0527 -14.4141 L 21.6797 -11.8066 C 21.9141 -11.5723 21.9434 -11.3867 21.8848 -11.0938 L 21.5039 -9.53125 L 23.0762 -7.95898 L 24.043 -8.04688 C 24.3262 -8.07617 24.4141 -8.05664 24.6387 -7.83203 L 25.2637 -7.20703 L 22.5098 -4.46289 L 21.8848 -5.07812 C 21.6602 -5.30273 21.6406 -5.40039 21.6699 -5.68359 L 21.7578 -6.64062 L 20.1953 -8.20312 L 18.5742 -7.89062 C 18.291 -7.83203 18.1445 -7.83203 17.9102 -8.07617 L 15.7324 -10.2539 C 15.5078 -10.4883 15.4785 -10.625 15.6055 -10.9473 L 16.5527 -13.2227 C 14.9512 -14.7559 12.8418 -15.6055 10.8008 -14.9512 C 10.7129 -14.9219 10.6445 -14.9414 10.6152 -14.9805 C 10.5859 -15.0293 10.5859 -15.0781 10.6738 -15.1465 Z M 4.10156 2.41211 C 3.61328 1.91406 3.78906 1.61133 4.12109 1.30859 L 15.0781 -8.80859 L 16.3086 -7.57812 L 6.15234 3.34961 C 5.84961 3.68164 5.46875 3.7793 5.06836 3.37891 Z"/>
  </g>
  <text style="stroke:none;fill:black;font-family:-apple-system,&quot;SF Pro Display&quot;,&quot;SF Pro Text&quot;,Helvetica,sans-serif;font-weight:bold;" transform="matrix(1 0 0 1 1289 1953)">Exporting</text>
  <text style="stroke:none;fill:black;font-family:-apple-system,&quot;SF Pro Display&quot;,&quot;SF Pro Text&quot;,Helvetica,sans-serif;" transform="matrix(1 0 0 1 1289 1971)">Symbols should be outlined when exporting to ensure the</text>
  <text style="stroke:none;fill:black;font-family:-apple-system,&quot;SF Pro Display&quot;,&quot;SF Pro Text&quot;,Helvetica,sans-serif;" transform="matrix(1 0 0 1 1289 1989)">design is preserved when submitting to Xcode.</text>
  <text id="template-version" style="stroke:none;fill:black;font-family:-apple-system,&quot;SF Pro Display&quot;,&quot;SF Pro Text&quot;,Helvetica,sans-serif;text-anchor:end;" transform="matrix(1 0 0 1 3036 1933)">Template v.1.0</text>
  <text style="stroke:none;fill:black;font-family:-apple-system,&quot;SF Pro Display&quot;,&quot;SF Pro Text&quot;,Helvetica,sans-serif;text-anchor:end;" transform="matrix(1 0 0 1 3036 1951)">Generated from textbox</text>
  <text style="stroke:none;fill:black;font-family:-apple-system,&quot;SF Pro Display&quot;,&quot;SF Pro Text&quot;,Helvetica,sans-serif;text-anchor:end;" transform="matrix(1 0 0 1 3036 1969)">Typeset at 100 points</text>
  <text style="stroke:none;fill:black;font-family:-apple-system,&quot;SF Pro Display&quot;,&quot;SF Pro Text&quot;,Helvetica,sans-serif;" transform="matrix(1 0 0 1 263 726)">Small</text>
  <text style="stroke:none;fill:black;font-family:-apple-system,&quot;SF Pro Display&quot;,&quot;SF Pro Text&quot;,Helvetica,sans-serif;" transform="matrix(1 0 0 1 263 1156)">Medium</text>
  <text style="stroke:none;fill:black;font-family:-apple-system,&quot;SF Pro Display&quot;,&quot;SF Pro Text&quot;,Helvetica,sans-serif;" transform="matrix(1 0 0 1 263 1586)">Large</text>
 </g>
 <g id="Guides">
  <g id="H-reference" style="fill:#27AAE1;stroke:none;" transform="matrix(1 0 0 1 339 696)">
   <path d="M 54.9316 0 L 57.666 0 L 30.5664 -70.459 L 28.0762 -70.459 L 0.976562 0 L 3.66211 0 L 12.9395 -24.4629 L 45.7031 -24.4629 Z M 29.1992 -67.0898 L 29.4434 -67.0898 L 44.8242 -26.709 L 13.8184 -26.709 Z"/>
  </g>
  <line id="Baseline-S" style="fill:none;stroke:#27AAE1;opacity:1;stroke-width:0.577;" x1="263" x2="3036" y1="696" y2="696"/>
  <line id="Capline-S" style="fill:none;stroke:#27AAE1;opacity:1;stroke-width:0.577;" x1="263" x2="3036" y1="625.541" y2="625.541"/>
  <g id="H-reference" style="fill:#27AAE1;stroke:none;" transform="matrix(1 0 0 1 339 1126)">
   <path d="M 54.9316 0 L 57.666 0 L 30.5664 -70.459 L 28.0762 -70.459 L 0.976562 0 L 3.66211 0 L 12.9395 -24.4629 L 45.7031 -24.4629 Z M 29.1992 -67.0898 L 29.4434 -67.0898 L 44.8242 -26.709 L 13.8184 -26.709 Z"/>
  </g>
  <line id="Baseline-M" style="fill:none;stroke:#27AAE1;opacity:1;stroke-width:0.577;" x1="263" x2="3036" y1="1126" y2="1126"/>
  <line id="Capline-M" style="fill:none;stroke:#27AAE1;opacity:1;stroke-width:0.577;" x1="263" x2="3036" y1="1055.54" y2="1055.54"/>
  <g id="H-reference" style="fill:#27AAE1;stroke:none;" transform="matrix(1 0 0 1 339 1556)">
   <path d="M 54.9316 0 L 57.666 0 L 30.5664 -70.459 L 28.0762 -70.459 L 0.976562 0 L 3.66211 0 L 12.9395 -24.4629 L 45.7031 -24.4629 Z M 29.1992 -67.0898 L 29.4434 -67.0898 L 44.8242 -26.709 L 13.8184 -26.709 Z"/>
  </g>
  <line id="Baseline-L" style="fill:none;stroke:#27AAE1;opacity:1;stroke-width:0.577;" x1="263" x2="3036" y1="1556" y2="1556"/>
  <line id="Capline-L" style="fill:none;stroke:#27AAE1;opacity:1;stroke-width:0.577;" x1="263" x2="3036" y1="1485.54" y2="1485.54"/>
  <rect height="119.336" id="left-margin" style="fill:#00AEEF;stroke:none;opacity:0.4;" width="12.4512" x="1377.41" y="1030.79"/>
  <rect height="119.336" id="right-margin" style="fill:#00AEEF;stroke:none;opacity:0.4;" width="12.4512" x="1509.83" y="1030.79"/>
 </g>
 <g id="Symbols">
  <g id="Black-L" transform="matrix(1 0 0 1 2839.75 1556)">
   <path d="M 28.0762 -55.8105 C 34.0332 -55.8105 38.1836 -60.0098 38.1836 -66.0645 L 38.1836 -69.6289 C 38.1836 -74.1699 40.3809 -76.0742 44.5801 -76.0742 L 142.725 -76.0742 C 146.973 -76.0742 149.121 -74.1699 149.121 -69.6289 L 149.121 -66.0645 C 149.121 -60.0098 153.271 -55.8105 159.229 -55.8105 C 165.234 -55.8105 169.385 -60.0098 169.385 -66.0645 L 169.385 -72.5098 C 169.385 -87.6953 160.742 -96.2891 145.459 -96.2891 L 41.8457 -96.2891 C 26.6113 -96.2891 17.9688 -87.6953 17.9688 -72.5098 L 17.9688 -66.0645 C 17.9688 -60.0098 22.1191 -55.8105 28.0762 -55.8105 Z M 93.6523 -8.69141 C 99.707 -8.69141 103.174 -12.6465 103.174 -19.1406 L 103.174 -47.4609 L 111.475 -47.4609 C 116.357 -47.4609 119.238 -50.1465 119.238 -54.5898 C 119.238 -59.0332 116.357 -61.6699 111.475 -61.6699 L 75.8301 -61.6699 C 70.9961 -61.6699 68.0664 -59.0332 68.0664 -54.5898 C 68.0664 -50.1465 70.9961 -47.4609 75.8301 -47.4609 L 84.2285 -47.4609 L 84.2285 -19.1406 C 84.2285 -12.6465 87.5977 -8.69141 93.6523 -8.69141 Z M 28.0273 -23.8281 C 34.6191 -23.8281 39.9902 -29.1992 39.9902 -35.791 C 39.9902 -42.334 34.6191 -47.7539 28.0273 -47.7539 C 21.4844 -47.7539 16.0645 -42.334 16.0645 -35.791 C 16.0645 -29.1992 21.4844 -23.8281 28.0273 -23.8281 Z M 159.326 -23.8281 C 165.869 -23.8281 171.24 -29.1992 171.24 -35.791 C 171.24 -42.334 165.869 -47.7539 159.326 -47.7539 C 152.734 -47.7539 147.363 -42.3828 147.363 -35.791 C 147.363 -29.1992 152.734 -23.8281 159.326 -23.8281 Z M 41.8457 25.9277 L 145.459 25.9277 C 160.742 25.9277 169.385 17.334 169.385 2.09961 L 169.385 -5.51758 C 169.385 -11.5723 165.186 -15.7715 159.229 -15.7715 C 153.271 -15.7715 149.121 -11.5723 149.121 -5.51758 L 149.121 -0.732422 C 149.121 3.80859 146.973 5.71289 142.725 5.71289 L 44.5801 5.71289 C 40.3809 5.71289 38.1836 3.80859 38.1836 -0.732422 L 38.1836 -5.51758 C 38.1836 -11.5723 34.0332 -15.7715 28.0762 -15.7715 C 22.1191 -15.7715 17.9688 -11.5723 17.9688 -5.51758 L 17.9688 2.09961 C 17.9688 17.334 26.6113 25.9277 41.8457 25.9277 Z"/>
  </g>
  <g id="Heavy-L" transform="matrix(1 0 0 1 2543.06 1556)">
   <path d="M 27.0996 -54.9805 C 32.2754 -54.9805 35.8398 -58.5938 35.8398 -63.8672 L 35.8398 -70.5078 C 35.8398 -75.6348 38.3789 -77.9297 43.2129 -77.9297 L 144.043 -77.9297 C 148.877 -77.9297 151.416 -75.6348 151.416 -70.5078 L 151.416 -63.8672 C 151.416 -58.5938 154.98 -54.9805 160.156 -54.9805 C 165.381 -54.9805 168.945 -58.5938 168.945 -63.8672 L 168.945 -72.8027 C 168.945 -87.3047 160.791 -95.4102 146.191 -95.4102 L 41.0645 -95.4102 C 26.4648 -95.4102 18.3594 -87.3535 18.3594 -72.8027 L 18.3594 -63.8672 C 18.3594 -58.5938 21.875 -54.9805 27.0996 -54.9805 Z M 93.5547 -8.54492 C 98.877 -8.54492 101.904 -12.0117 101.904 -17.7246 L 101.904 -49.2676 L 112.061 -49.2676 C 116.26 -49.2676 118.848 -51.6602 118.848 -55.5664 C 118.848 -59.4727 116.26 -61.8164 112.061 -61.8164 L 75.1953 -61.8164 C 70.9961 -61.8164 68.4082 -59.4727 68.4082 -55.5664 C 68.4082 -51.6602 70.9961 -49.2676 75.1953 -49.2676 L 85.3516 -49.2676 L 85.3516 -17.7246 C 85.3516 -12.0605 88.3301 -8.54492 93.5547 -8.54492 Z M 27.0508 -24.9512 C 33.1055 -24.9512 38.0371 -29.9316 38.0371 -35.9863 C 38.0371 -41.9922 33.1055 -46.9238 27.0508 -46.9238 C 21.0449 -46.9238 16.0645 -41.9922 16.0645 -35.9863 C 16.0645 -29.9316 21.0449 -24.9512 27.0508 -24.9512 Z M 160.205 -24.9512 C 166.211 -24.9512 171.191 -29.9316 171.191 -35.9863 C 171.191 -41.9922 166.211 -46.9238 160.205 -46.9238 C 154.15 -46.9238 149.219 -41.9922 149.219 -35.9863 C 149.219 -29.9316 154.15 -24.9512 160.205 -24.9512 Z M 41.0645 25.0488 L 146.191 25.0488 C 160.791 25.0488 168.945 16.9434 168.945 2.44141 L 168.945 -8.00781 C 168.945 -13.2812 165.381 -16.8457 160.156 -16.8457 C 154.932 -16.8457 151.416 -13.2812 151.416 -8.00781 L 151.416 0.146484 C 151.416 5.27344 148.877 7.56836 144.043 7.56836 L 43.2129 7.56836 C 38.3789 7.56836 35.8398 5.27344 35.8398 0.146484 L 35.8398 -8.00781 C 35.8398 -13.2812 32.2754 -16.8457 27.0996 -16.8457 C 21.875 -16.8457 18.3594 -13.2812 18.3594 -8.00781 L 18.3594 2.44141 C 18.3594 16.9922 26.4648 25.0488 41.0645 25.0488 Z"/>
  </g>
  <g id="Bold-L" transform="matrix(1 0 0 1 2246.4 1556)">
   <path d="M 25.9766 -54.0527 C 30.3223 -54.0527 33.2031 -56.9824 33.2031 -61.377 L 33.2031 -71.4355 C 33.2031 -77.2461 36.1328 -79.9805 41.6504 -79.9805 L 145.508 -79.9805 C 150.977 -79.9805 154.004 -77.2461 154.004 -71.4355 L 154.004 -61.377 C 154.004 -56.9824 156.885 -54.0527 161.182 -54.0527 C 165.576 -54.0527 168.408 -56.9824 168.408 -61.377 L 168.408 -73.0957 C 168.408 -86.9141 160.938 -94.4336 146.973 -94.4336 L 40.2344 -94.4336 C 26.3184 -94.4336 18.75 -86.9629 18.75 -73.0957 L 18.75 -61.377 C 18.75 -56.9824 21.6309 -54.0527 25.9766 -54.0527 Z M 93.5059 -8.44727 C 97.9492 -8.44727 100.439 -11.3281 100.439 -16.0645 L 100.439 -51.3184 L 112.695 -51.3184 C 116.162 -51.3184 118.408 -53.3691 118.408 -56.6406 C 118.408 -60.0098 116.162 -62.0117 112.695 -62.0117 L 74.5117 -62.0117 C 71.0449 -62.0117 68.7988 -60.0098 68.7988 -56.6406 C 68.7988 -53.3691 71.0449 -51.3184 74.5117 -51.3184 L 86.6699 -51.3184 L 86.6699 -16.0645 C 86.6699 -11.377 89.1113 -8.44727 93.5059 -8.44727 Z M 25.9277 -26.2695 C 31.3965 -26.2695 35.8398 -30.7129 35.8398 -36.1816 C 35.8398 -41.5527 31.3965 -46.0449 25.9277 -46.0449 C 20.5566 -46.0449 16.0645 -41.5527 16.0645 -36.1816 C 16.0645 -30.7129 20.5566 -26.2695 25.9277 -26.2695 Z M 161.23 -26.2695 C 166.65 -26.2695 171.094 -30.7129 171.094 -36.1816 C 171.094 -41.5527 166.65 -46.0449 161.23 -46.0449 C 155.762 -46.0449 151.367 -41.6016 151.367 -36.1816 C 151.367 -30.7129 155.762 -26.2695 161.23 -26.2695 Z M 40.2344 24.0723 L 146.973 24.0723 C 160.938 24.0723 168.408 16.6016 168.408 2.7832 L 168.408 -10.791 C 168.408 -15.1855 165.576 -18.0664 161.182 -18.0664 C 156.836 -18.0664 154.004 -15.1855 154.004 -10.791 L 154.004 1.12305 C 154.004 6.88477 150.977 9.61914 145.508 9.61914 L 41.6504 9.61914 C 36.1328 9.61914 33.2031 6.88477 33.2031 1.12305 L 33.2031 -10.791 C 33.2031 -15.1855 30.3223 -18.0664 25.9766 -18.0664 C 21.6309 -18.0664 18.75 -15.1855 18.75 -10.791 L 18.75 2.7832 C 18.75 16.6016 26.3184 24.0723 40.2344 24.0723 Z"/>
  </g>
  <g id="Semibold-L" transform="matrix(1 0 0 1 1949.71 1556)">
   <path d="M 25.1953 -53.4668 C 28.9551 -53.4668 31.3965 -55.8594 31.3965 -59.668 L 31.3965 -72.1191 C 31.3965 -78.3203 34.6191 -81.3965 40.5762 -81.3965 L 146.533 -81.3965 C 152.441 -81.3965 155.762 -78.3203 155.762 -72.1191 L 155.762 -59.668 C 155.762 -55.8594 158.154 -53.4668 161.914 -53.4668 C 165.723 -53.4668 168.066 -55.8594 168.066 -59.668 L 168.066 -73.3398 C 168.066 -86.6699 160.986 -93.75 147.51 -93.75 L 39.5996 -93.75 C 26.1719 -93.75 19.043 -86.6699 19.043 -73.3398 L 19.043 -59.668 C 19.043 -55.8594 21.4844 -53.4668 25.1953 -53.4668 Z M 93.457 -8.34961 C 97.2656 -8.34961 99.4629 -10.8887 99.4629 -14.9414 L 99.4629 -52.7344 L 113.135 -52.7344 C 116.113 -52.7344 118.115 -54.541 118.115 -57.4219 C 118.115 -60.3516 116.113 -62.1094 113.135 -62.1094 L 74.0234 -62.1094 C 71.0449 -62.1094 69.043 -60.3516 69.043 -57.4219 C 69.043 -54.541 71.0449 -52.7344 74.0234 -52.7344 L 87.5488 -52.7344 L 87.5488 -14.9414 C 87.5488 -10.9375 89.6484 -8.34961 93.457 -8.34961 Z M 25.1953 -27.1484 C 30.2246 -27.1484 34.3262 -31.25 34.3262 -36.2793 C 34.3262 -41.3086 30.2246 -45.4102 25.1953 -45.4102 C 20.2148 -45.4102 16.0645 -41.3086 16.0645 -36.2793 C 16.0645 -31.25 20.2148 -27.1484 25.1953 -27.1484 Z M 161.914 -27.1484 C 166.895 -27.1484 171.045 -31.25 171.045 -36.2793 C 171.045 -41.3086 166.895 -45.4102 161.914 -45.4102 C 156.885 -45.4102 152.783 -41.3086 152.783 -36.2793 C 152.783 -31.25 156.885 -27.1484 161.914 -27.1484 Z M 39.5996 23.3887 L 147.51 23.3887 C 160.986 23.3887 168.066 16.3086 168.066 3.02734 L 168.066 -12.6953 C 168.066 -16.5039 165.674 -18.9453 161.914 -18.9453 C 158.105 -18.9453 155.762 -16.5039 155.762 -12.6953 L 155.762 1.80664 C 155.762 8.00781 152.441 11.084 146.533 11.084 L 40.5762 11.084 C 34.6191 11.084 31.3965 8.00781 31.3965 1.80664 L 31.3965 -12.6953 C 31.3965 -16.5039 28.9551 -18.9453 25.1953 -18.9453 C 21.4844 -18.9453 19.043 -16.5039 19.043 -12.6953 L 19.043 3.02734 C 19.043 16.3574 26.1719 23.3887 39.5996 23.3887 Z"/>
  </g>
  <g id="Medium-L" transform="matrix(1 0 0 1 1653.03 1556)">
   <path d="M 24.6582 -52.9785 C 27.9297 -52.9785 30.0293 -55.0293 30.0293 -58.3984 L 30.0293 -72.6074 C 30.0293 -79.1992 33.4473 -82.4707 39.7949 -82.4707 L 147.314 -82.4707 C 153.564 -82.4707 157.08 -79.1992 157.08 -72.6074 L 157.08 -58.3984 C 157.08 -55.0293 159.18 -52.9785 162.451 -52.9785 C 165.82 -52.9785 167.822 -55.0293 167.822 -58.3984 L 167.822 -73.5352 C 167.822 -86.4258 161.035 -93.2129 147.949 -93.2129 L 39.1602 -93.2129 C 26.0742 -93.2129 19.2871 -86.4746 19.2871 -73.5352 L 19.2871 -58.3984 C 19.2871 -55.0293 21.3379 -52.9785 24.6582 -52.9785 Z M 93.4082 -8.25195 C 96.8262 -8.25195 98.6816 -10.498 98.6816 -14.1113 L 98.6816 -53.7598 L 113.477 -53.7598 C 116.113 -53.7598 117.871 -55.4199 117.871 -58.0078 C 117.871 -60.6445 116.113 -62.207 113.477 -62.207 L 73.6328 -62.207 C 71.0449 -62.207 69.2383 -60.6445 69.2383 -58.0078 C 69.2383 -55.4199 71.0449 -53.7598 73.6328 -53.7598 L 88.2324 -53.7598 L 88.2324 -14.1113 C 88.2324 -10.5957 90.0879 -8.25195 93.4082 -8.25195 Z M 24.6094 -27.7832 C 29.3457 -27.7832 33.1543 -31.6406 33.1543 -36.377 C 33.1543 -41.0645 29.3457 -44.9219 24.6094 -44.9219 C 19.9219 -44.9219 16.0645 -41.0645 16.0645 -36.377 C 16.0645 -31.6406 19.9219 -27.7832 24.6094 -27.7832 Z M 162.451 -27.7832 C 167.139 -27.7832 170.996 -31.6406 170.996 -36.377 C 170.996 -41.0645 167.139 -44.9219 162.451 -44.9219 C 157.715 -44.9219 153.906 -41.1133 153.906 -36.377 C 153.906 -31.6406 157.715 -27.7832 162.451 -27.7832 Z M 39.1602 22.9004 L 147.949 22.9004 C 161.035 22.9004 167.822 16.1133 167.822 3.17383 L 167.822 -14.1113 C 167.822 -17.4805 165.771 -19.5801 162.451 -19.5801 C 159.131 -19.5801 157.08 -17.4805 157.08 -14.1113 L 157.08 2.29492 C 157.08 8.83789 153.564 12.1582 147.314 12.1582 L 39.7949 12.1582 C 33.4473 12.1582 30.0293 8.83789 30.0293 2.29492 L 30.0293 -14.1113 C 30.0293 -17.4805 27.9297 -19.5801 24.6582 -19.5801 C 21.3379 -19.5801 19.2871 -17.4805 19.2871 -14.1113 L 19.2871 3.17383 C 19.2871 16.1621 26.0742 22.9004 39.1602 22.9004 Z"/>
  </g>
  <g id="Regular-L" transform="matrix(1 0 0 1 1356.34 1556)">
   <path d="M 23.877 -52.3438 C 26.6113 -52.3438 28.2227 -53.9551 28.2227 -56.7383 L 28.2227 -73.291 C 28.2227 -80.2734 31.9336 -83.8867 38.7207 -83.8867 L 148.291 -83.8867 C 154.98 -83.8867 158.838 -80.2734 158.838 -73.291 L 158.838 -56.7383 C 158.838 -53.9551 160.449 -52.3438 163.184 -52.3438 C 165.967 -52.3438 167.48 -53.9551 167.48 -56.7383 L 167.48 -73.7305 C 167.48 -86.1816 161.133 -92.5293 148.486 -92.5293 L 38.5742 -92.5293 C 25.9766 -92.5293 19.5801 -86.2305 19.5801 -73.7305 L 19.5801 -56.7383 C 19.5801 -53.9551 21.1914 -52.3438 23.877 -52.3438 Z M 93.3594 -8.20312 C 96.1914 -8.20312 97.7051 -10.0586 97.7051 -12.9883 L 97.7051 -55.1758 L 113.916 -55.1758 C 116.016 -55.1758 117.578 -56.5918 117.578 -58.7402 C 117.578 -60.9863 116.016 -62.3535 113.916 -62.3535 L 73.1445 -62.3535 C 71.0449 -62.3535 69.4824 -60.9863 69.4824 -58.7402 C 69.4824 -56.5918 71.0449 -55.1758 73.1445 -55.1758 L 89.1113 -55.1758 L 89.1113 -12.9883 C 89.1113 -10.1562 90.625 -8.20312 93.3594 -8.20312 Z M 23.877 -28.6621 C 28.1738 -28.6621 31.6895 -32.1777 31.6895 -36.5234 C 31.6895 -40.8203 28.1738 -44.2871 23.877 -44.2871 C 19.5801 -44.2871 16.0645 -40.8203 16.0645 -36.5234 C 16.0645 -32.1777 19.5801 -28.6621 23.877 -28.6621 Z M 163.184 -28.6621 C 167.432 -28.6621 170.947 -32.1777 170.947 -36.5234 C 170.947 -40.8203 167.432 -44.2871 163.184 -44.2871 C 158.838 -44.2871 155.322 -40.8691 155.322 -36.5234 C 155.322 -32.1777 158.838 -28.6621 163.184 -28.6621 Z M 38.5742 22.2168 L 148.486 22.2168 C 161.133 22.2168 167.48 15.8691 167.48 3.41797 L 167.48 -16.0156 C 167.48 -18.7988 165.918 -20.4102 163.184 -20.4102 C 160.4 -20.4102 158.838 -18.7988 158.838 -16.0156 L 158.838 2.97852 C 158.838 9.96094 154.98 13.5742 148.291 13.5742 L 38.7207 13.5742 C 31.9336 13.5742 28.2227 9.96094 28.2227 2.97852 L 28.2227 -16.0156 C 28.2227 -18.7988 26.6113 -20.4102 23.877 -20.4102 C 21.1914 -20.4102 19.5801 -18.7988 19.5801 -16.0156 L 19.5801 3.41797 C 19.5801 15.918 25.9766 22.2168 38.5742 22.2168 Z"/>
  </g>
  <g id="Light-L" transform="matrix(1 0 0 1 1059.58 1556)">
   <path d="M 23.3398 -51.416 C 25.3906 -51.416 26.6602 -52.6855 26.6602 -54.7363 L 26.6602 -73.4863 C 26.6602 -81.1523 30.6641 -85.0586 38.1836 -85.0586 L 148.975 -85.0586 C 156.25 -85.0586 160.498 -81.1523 160.498 -73.4863 L 160.498 -54.7363 C 160.498 -52.6855 161.768 -51.416 163.77 -51.416 C 165.918 -51.416 167.09 -52.6855 167.09 -54.7363 L 167.09 -73.8281 C 167.09 -85.5469 160.986 -91.6992 149.121 -91.6992 L 38.0371 -91.6992 C 26.1719 -91.6992 20.0684 -85.6445 20.0684 -73.8281 L 20.0684 -54.7363 C 20.0684 -52.6855 21.3379 -51.416 23.3398 -51.416 Z M 93.3594 -8.64258 C 95.5078 -8.64258 96.7285 -10.0586 96.7285 -12.2559 L 96.7285 -56.25 L 113.672 -56.25 C 115.381 -56.25 116.553 -57.373 116.553 -59.082 C 116.553 -60.8398 115.381 -61.9141 113.672 -61.9141 L 73.4863 -61.9141 C 71.875 -61.9141 70.6543 -60.8398 70.6543 -59.082 C 70.6543 -57.373 71.875 -56.25 73.4863 -56.25 L 90.0391 -56.25 L 90.0391 -12.2559 C 90.0391 -10.1074 91.2598 -8.64258 93.3594 -8.64258 Z M 23.3398 -28.8086 C 27.3438 -28.8086 30.6152 -32.0801 30.6152 -36.1328 C 30.6152 -40.1367 27.3438 -43.3594 23.3398 -43.3594 C 19.3848 -43.3594 16.0645 -40.1367 16.0645 -36.1328 C 16.0645 -32.0801 19.3848 -28.8086 23.3398 -28.8086 Z M 163.77 -28.8086 C 167.725 -28.8086 171.045 -32.0801 171.045 -36.1328 C 171.045 -40.1367 167.725 -43.3594 163.77 -43.3594 C 159.766 -43.3594 156.494 -40.1367 156.494 -36.1328 C 156.494 -32.0801 159.766 -28.8086 163.77 -28.8086 Z M 38.0371 21.4355 L 149.121 21.4355 C 160.986 21.4355 167.09 15.2344 167.09 3.56445 L 167.09 -17.041 C 167.09 -19.0918 165.869 -20.4102 163.77 -20.4102 C 161.719 -20.4102 160.498 -19.0918 160.498 -17.041 L 160.498 3.22266 C 160.498 10.8398 156.25 14.7949 148.975 14.7949 L 38.1836 14.7949 C 30.6641 14.7949 26.6602 10.8398 26.6602 3.22266 L 26.6602 -17.041 C 26.6602 -19.0918 25.3906 -20.4102 23.3398 -20.4102 C 21.3379 -20.4102 20.0684 -19.0918 20.0684 -17.041 L 20.0684 3.56445 C 20.0684 15.3809 26.1719 21.4355 38.0371 21.4355 Z"/>
  </g>
  <g id="Thin-L" transform="matrix(1 0 0 1 762.819 1556)">
   <path d="M 22.6562 -50.1465 C 23.7793 -50.1465 24.6582 -50.9766 24.6582 -52.1484 L 24.6582 -73.7793 C 24.6582 -82.2754 29.0527 -86.6699 37.5 -86.6699 L 149.805 -86.6699 C 157.959 -86.6699 162.646 -82.2754 162.646 -73.7793 L 162.646 -52.1484 C 162.646 -50.9766 163.477 -50.1465 164.6 -50.1465 C 165.82 -50.1465 166.602 -50.9766 166.602 -52.1484 L 166.602 -73.9746 C 166.602 -84.7168 160.84 -90.5762 150 -90.5762 L 37.3047 -90.5762 C 26.4648 -90.5762 20.7031 -84.8633 20.7031 -73.9746 L 20.7031 -52.1484 C 20.7031 -50.9766 21.5332 -50.1465 22.6562 -50.1465 Z M 93.3594 -9.22852 C 94.6289 -9.22852 95.4102 -10.1074 95.4102 -11.3281 L 95.4102 -57.666 L 113.379 -57.666 C 114.502 -57.666 115.234 -58.4473 115.234 -59.5215 C 115.234 -60.6445 114.502 -61.377 113.379 -61.377 L 73.9746 -61.377 C 72.9492 -61.377 72.1191 -60.6445 72.1191 -59.5215 C 72.1191 -58.4473 72.9492 -57.666 73.9746 -57.666 L 91.3086 -57.666 L 91.3086 -11.3281 C 91.3086 -10.1074 92.1387 -9.22852 93.3594 -9.22852 Z M 22.6562 -29.0039 C 26.2695 -29.0039 29.1992 -31.9336 29.1992 -35.5957 C 29.1992 -39.209 26.2695 -42.0898 22.6562 -42.0898 C 19.043 -42.0898 16.0645 -39.209 16.0645 -35.5957 C 16.0645 -31.9336 19.043 -29.0039 22.6562 -29.0039 Z M 164.6 -29.0039 C 168.164 -29.0039 171.143 -31.9336 171.143 -35.5957 C 171.143 -39.209 168.164 -42.0898 164.6 -42.0898 C 160.986 -42.0898 158.008 -39.209 158.008 -35.5957 C 158.008 -31.9336 160.986 -29.0039 164.6 -29.0039 Z M 37.3047 20.3613 L 150 20.3613 C 160.84 20.3613 166.602 14.4531 166.602 3.75977 L 166.602 -18.4082 C 166.602 -19.5312 165.82 -20.4102 164.6 -20.4102 C 163.477 -20.4102 162.646 -19.5312 162.646 -18.4082 L 162.646 3.56445 C 162.646 12.0117 157.959 16.4062 149.805 16.4062 L 37.5 16.4062 C 29.0527 16.4062 24.6582 12.0117 24.6582 3.56445 L 24.6582 -18.4082 C 24.6582 -19.5312 23.7793 -20.4102 22.6562 -20.4102 C 21.5332 -20.4102 20.7031 -19.5312 20.7031 -18.4082 L 20.7031 3.75977 C 20.7031 14.6484 26.4648 20.3613 37.3047 20.3613 Z"/>
  </g>
  <g id="Ultralight-L" transform="matrix(1 0 0 1 466.059 1556)">
   <path d="M 22.3145 -49.5117 C 22.998 -49.5117 23.584 -50.1465 23.584 -50.7812 L 23.584 -73.9258 C 23.584 -82.8125 28.2227 -87.4512 37.1094 -87.4512 L 150.244 -87.4512 C 158.838 -87.4512 163.77 -82.8125 163.77 -73.9258 L 163.77 -50.7812 C 163.77 -50.1465 164.404 -49.5117 165.039 -49.5117 C 165.771 -49.5117 166.309 -50.1465 166.309 -50.7812 L 166.309 -74.0723 C 166.309 -84.2773 160.791 -89.9902 150.439 -89.9902 L 36.9629 -89.9902 C 26.5625 -89.9902 21.0449 -84.4727 21.0449 -74.0723 L 21.0449 -50.7812 C 21.0449 -50.1465 21.6797 -49.5117 22.3145 -49.5117 Z M 93.3594 -9.52148 C 94.1895 -9.52148 94.7266 -10.1074 94.7266 -10.8398 L 94.7266 -58.3984 L 113.232 -58.3984 C 114.062 -58.3984 114.551 -59.0332 114.551 -59.7656 C 114.551 -60.5469 114.062 -61.1328 113.232 -61.1328 L 74.2676 -61.1328 C 73.4863 -61.1328 72.9004 -60.5469 72.9004 -59.7656 C 72.9004 -59.0332 73.4863 -58.3984 74.2676 -58.3984 L 91.9922 -58.3984 L 91.9922 -10.8398 C 91.9922 -10.1074 92.5781 -9.52148 93.3594 -9.52148 Z M 22.3145 -29.1016 C 25.6836 -29.1016 28.5156 -31.8359 28.5156 -35.3027 C 28.5156 -38.7695 25.6836 -41.4551 22.3145 -41.4551 C 18.8965 -41.4551 16.0645 -38.7695 16.0645 -35.3027 C 16.0645 -31.8359 18.8965 -29.1016 22.3145 -29.1016 Z M 165.039 -29.1016 C 168.408 -29.1016 171.24 -31.8359 171.24 -35.3027 C 171.24 -38.7695 168.408 -41.4551 165.039 -41.4551 C 161.621 -41.4551 158.789 -38.7207 158.789 -35.3027 C 158.789 -31.8359 161.621 -29.1016 165.039 -29.1016 Z M 36.9629 19.7754 L 150.439 19.7754 C 160.791 19.7754 166.309 14.0625 166.309 3.85742 L 166.309 -19.1406 C 166.309 -19.7754 165.771 -20.4102 165.039 -20.4102 C 164.404 -20.4102 163.77 -19.7754 163.77 -19.1406 L 163.77 3.75977 C 163.77 12.6465 158.838 17.2363 150.244 17.2363 L 37.1094 17.2363 C 28.2227 17.2363 23.584 12.6465 23.584 3.75977 L 23.584 -19.1406 C 23.584 -19.7754 22.998 -20.4102 22.3145 -20.4102 C 21.6797 -20.4102 21.0449 -19.7754 21.0449 -19.1406 L 21.0449 3.85742 C 21.0449 14.2578 26.5625 19.7754 36.9629 19.7754 Z"/>
  </g>
  <g id="Black-M" transform="matrix(1 0 0 1 2860.74 1126)">
   <path d="M 22.8027 -51.7578 C 28.125 -51.7578 31.9824 -55.6641 31.9824 -61.0352 L 31.9824 -60.8398 C 31.9824 -63.916 33.3008 -65.0391 36.1328 -65.0391 L 109.18 -65.0391 C 112.012 -65.0391 113.379 -63.916 113.379 -60.8398 L 113.379 -61.0352 C 113.379 -55.6641 117.236 -51.7578 122.51 -51.7578 C 127.783 -51.7578 131.641 -55.6641 131.641 -61.0352 L 131.641 -63.7695 C 131.641 -76.0254 124.365 -83.3008 112.109 -83.3008 L 33.2031 -83.3008 C 20.9473 -83.3008 13.6719 -76.0254 13.6719 -63.7695 L 13.6719 -61.0352 C 13.6719 -55.6641 17.5293 -51.7578 22.8027 -51.7578 Z M 72.6562 -15.0391 C 78.0273 -15.0391 81.1523 -18.5547 81.1523 -24.3652 L 81.1523 -42.8223 L 85.498 -42.8223 C 89.8926 -42.8223 92.4316 -45.166 92.4316 -49.0723 C 92.4316 -52.9785 89.8926 -55.2734 85.498 -55.2734 L 59.8633 -55.2734 C 55.4199 -55.2734 52.9297 -52.9785 52.9297 -49.0723 C 52.9297 -45.166 55.4199 -42.8223 59.8633 -42.8223 L 64.209 -42.8223 L 64.209 -24.3652 C 64.209 -18.5059 67.334 -15.0391 72.6562 -15.0391 Z M 22.7539 -24.9023 C 28.418 -24.9023 33.0566 -29.5898 33.0566 -35.2051 C 33.0566 -40.8691 28.418 -45.5078 22.7539 -45.5078 C 17.0898 -45.5078 12.4512 -40.8691 12.4512 -35.2051 C 12.4512 -29.5898 17.0898 -24.9023 22.7539 -24.9023 Z M 122.559 -24.9023 C 128.223 -24.9023 132.861 -29.5898 132.861 -35.2051 C 132.861 -40.8691 128.223 -45.5078 122.559 -45.5078 C 116.895 -45.5078 112.256 -40.8691 112.256 -35.2051 C 112.256 -29.5898 116.895 -24.9023 122.559 -24.9023 Z M 33.2031 12.8906 L 112.109 12.8906 C 124.365 12.8906 131.641 5.61523 131.641 -6.64062 L 131.641 -9.42383 C 131.641 -14.7461 127.783 -18.7012 122.51 -18.7012 C 117.236 -18.7012 113.379 -14.7461 113.379 -9.42383 L 113.379 -9.52148 C 113.379 -6.44531 112.012 -5.37109 109.18 -5.37109 L 36.1328 -5.37109 C 33.3008 -5.37109 31.9824 -6.44531 31.9824 -9.52148 L 31.9824 -9.42383 C 31.9824 -14.7461 28.125 -18.7012 22.8027 -18.7012 C 17.5293 -18.7012 13.6719 -14.7461 13.6719 -9.42383 L 13.6719 -6.64062 C 13.6719 5.61523 20.9473 12.8906 33.2031 12.8906 Z"/>
  </g>
  <g id="Heavy-M" transform="matrix(1 0 0 1 2564.08 1126)">
   <path d="M 21.875 -51.123 C 26.5137 -51.123 29.7852 -54.4434 29.7852 -59.1309 L 29.7852 -61.7188 C 29.7852 -65.2832 31.4453 -66.748 34.7656 -66.748 L 110.449 -66.748 C 113.77 -66.748 115.43 -65.2832 115.43 -61.7188 L 115.43 -59.1309 C 115.43 -54.4434 118.701 -51.123 123.34 -51.123 C 127.979 -51.123 131.25 -54.4434 131.25 -59.1309 L 131.25 -64.0625 C 131.25 -75.7812 124.512 -82.5684 112.744 -82.5684 L 32.4707 -82.5684 C 20.752 -82.5684 13.9648 -75.8301 13.9648 -64.0625 L 13.9648 -59.1309 C 13.9648 -54.4434 17.2363 -51.123 21.875 -51.123 Z M 72.6074 -14.7949 C 77.2949 -14.7949 80.0293 -17.8711 80.0293 -22.9492 L 80.0293 -44.5312 L 86.1816 -44.5312 C 89.9902 -44.5312 92.2363 -46.6309 92.2363 -50.0488 C 92.2363 -53.5156 89.9902 -55.5664 86.1816 -55.5664 L 59.0332 -55.5664 C 55.2246 -55.5664 52.9785 -53.5156 52.9785 -50.0488 C 52.9785 -46.6309 55.2246 -44.5312 59.0332 -44.5312 L 65.2344 -44.5312 L 65.2344 -22.9492 C 65.2344 -17.8711 67.9199 -14.7949 72.6074 -14.7949 Z M 21.8262 -26.123 C 26.9531 -26.123 31.2012 -30.3711 31.2012 -35.498 C 31.2012 -40.6738 26.9531 -44.873 21.8262 -44.873 C 16.6992 -44.873 12.4512 -40.6738 12.4512 -35.498 C 12.4512 -30.3711 16.6992 -26.123 21.8262 -26.123 Z M 123.389 -26.123 C 128.516 -26.123 132.764 -30.3711 132.764 -35.498 C 132.764 -40.6738 128.516 -44.873 123.389 -44.873 C 118.262 -44.873 114.014 -40.6738 114.014 -35.498 C 114.014 -30.3711 118.262 -26.123 123.389 -26.123 Z M 32.4707 12.1582 L 112.744 12.1582 C 124.512 12.1582 131.25 5.41992 131.25 -6.29883 L 131.25 -11.8652 C 131.25 -16.5527 127.979 -19.873 123.34 -19.873 C 118.701 -19.873 115.43 -16.5527 115.43 -11.8652 L 115.43 -8.64258 C 115.43 -5.12695 113.77 -3.66211 110.449 -3.66211 L 34.7656 -3.66211 C 31.4453 -3.66211 29.7852 -5.12695 29.7852 -8.64258 L 29.7852 -11.8652 C 29.7852 -16.5527 26.5137 -19.873 21.875 -19.873 C 17.2363 -19.873 13.9648 -16.5527 13.9648 -11.8652 L 13.9648 -6.29883 C 13.9648 5.41992 20.752 12.1582 32.4707 12.1582 Z"/>
  </g>
  <g id="Bold-M" transform="matrix(1 0 0 1 2267.42 1126)">
   <path d="M 20.8008 -50.3906 C 24.707 -50.3906 27.3438 -53.0762 27.3438 -57.0312 L 27.3438 -62.7441 C 27.3438 -66.7969 29.3945 -68.6523 33.252 -68.6523 L 111.865 -68.6523 C 115.723 -68.6523 117.773 -66.7969 117.773 -62.7441 L 117.773 -57.0312 C 117.773 -53.0762 120.41 -50.3906 124.316 -50.3906 C 128.223 -50.3906 130.811 -53.0762 130.811 -57.0312 L 130.811 -64.4043 C 130.811 -75.5371 124.658 -81.7383 113.428 -81.7383 L 31.6895 -81.7383 C 20.5078 -81.7383 14.2578 -75.5371 14.2578 -64.4043 L 14.2578 -57.0312 C 14.2578 -53.0762 16.9434 -50.3906 20.8008 -50.3906 Z M 72.5098 -14.5508 C 76.4648 -14.5508 78.7109 -17.1387 78.7109 -21.3867 L 78.7109 -46.4355 L 86.9629 -46.4355 C 90.0879 -46.4355 92.041 -48.2422 92.041 -51.1719 C 92.041 -54.1016 90.0879 -55.8594 86.9629 -55.8594 L 58.1543 -55.8594 C 55.0293 -55.8594 53.0762 -54.1016 53.0762 -51.1719 C 53.0762 -48.2422 55.0293 -46.4355 58.1543 -46.4355 L 66.3574 -46.4355 L 66.3574 -21.3867 C 66.3574 -17.1387 68.5547 -14.5508 72.5098 -14.5508 Z M 20.8008 -27.4902 C 25.3418 -27.4902 29.1016 -31.25 29.1016 -35.8398 C 29.1016 -40.4297 25.3418 -44.1406 20.8008 -44.1406 C 16.2109 -44.1406 12.4512 -40.4297 12.4512 -35.8398 C 12.4512 -31.25 16.2109 -27.4902 20.8008 -27.4902 Z M 124.316 -27.4902 C 128.906 -27.4902 132.666 -31.25 132.666 -35.8398 C 132.666 -40.4297 128.906 -44.1406 124.316 -44.1406 C 119.727 -44.1406 116.016 -40.4297 116.016 -35.8398 C 116.016 -31.25 119.727 -27.4902 124.316 -27.4902 Z M 31.6895 11.3281 L 113.428 11.3281 C 124.658 11.3281 130.811 5.17578 130.811 -6.00586 L 130.811 -14.5996 C 130.811 -18.5059 128.174 -21.1914 124.316 -21.1914 C 120.361 -21.1914 117.773 -18.5059 117.773 -14.5996 L 117.773 -7.66602 C 117.773 -3.56445 115.723 -1.75781 111.865 -1.75781 L 33.252 -1.75781 C 29.3945 -1.75781 27.3438 -3.56445 27.3438 -7.66602 L 27.3438 -14.5996 C 27.3438 -18.5059 24.707 -21.1914 20.8008 -21.1914 C 16.9434 -21.1914 14.2578 -18.5059 14.2578 -14.5996 L 14.2578 -6.00586 C 14.2578 5.17578 20.5078 11.3281 31.6895 11.3281 Z"/>
  </g>
  <g id="Semibold-M" transform="matrix(1 0 0 1 1970.76 1126)">
   <path d="M 20.0684 -49.9023 C 23.4863 -49.9023 25.6836 -52.1484 25.6836 -55.5664 L 25.6836 -63.3789 C 25.6836 -67.8223 27.9297 -69.9707 32.1777 -69.9707 L 112.842 -69.9707 C 117.041 -69.9707 119.385 -67.8223 119.385 -63.3789 L 119.385 -55.5664 C 119.385 -52.1484 121.582 -49.9023 124.951 -49.9023 C 128.369 -49.9023 130.518 -52.1484 130.518 -55.5664 L 130.518 -64.5996 C 130.518 -75.3906 124.756 -81.1523 113.867 -81.1523 L 31.1523 -81.1523 C 20.3125 -81.1523 14.502 -75.3906 14.502 -64.5996 L 14.502 -55.5664 C 14.502 -52.1484 16.6992 -49.9023 20.0684 -49.9023 Z M 72.4609 -14.3555 C 75.8789 -14.3555 77.832 -16.6016 77.832 -20.3125 L 77.832 -47.7539 L 87.5 -47.7539 C 90.1855 -47.7539 91.8945 -49.3652 91.8945 -51.9531 C 91.8945 -54.541 90.1855 -56.1035 87.5 -56.1035 L 57.5684 -56.1035 C 54.8828 -56.1035 53.125 -54.541 53.125 -51.9531 C 53.125 -49.3652 54.8828 -47.7539 57.5684 -47.7539 L 67.1387 -47.7539 L 67.1387 -20.3125 C 67.1387 -16.6504 69.043 -14.3555 72.4609 -14.3555 Z M 20.0684 -28.418 C 24.2676 -28.418 27.6855 -31.8848 27.6855 -36.084 C 27.6855 -40.2344 24.2676 -43.6523 20.0684 -43.6523 C 15.8691 -43.6523 12.4512 -40.2344 12.4512 -36.084 C 12.4512 -31.8848 15.8691 -28.418 20.0684 -28.418 Z M 124.951 -28.418 C 129.15 -28.418 132.568 -31.8848 132.568 -36.084 C 132.568 -40.2344 129.15 -43.6523 124.951 -43.6523 C 120.752 -43.6523 117.383 -40.2832 117.383 -36.084 C 117.383 -31.8848 120.752 -28.418 124.951 -28.418 Z M 31.1523 10.791 L 113.867 10.791 C 124.756 10.791 130.518 4.98047 130.518 -5.76172 L 130.518 -16.4551 C 130.518 -19.9219 128.32 -22.1191 124.951 -22.1191 C 121.533 -22.1191 119.385 -19.9219 119.385 -16.4551 L 119.385 -6.98242 C 119.385 -2.53906 117.041 -0.390625 112.842 -0.390625 L 32.1777 -0.390625 C 27.9297 -0.390625 25.6836 -2.53906 25.6836 -6.98242 L 25.6836 -16.4551 C 25.6836 -19.9219 23.4863 -22.1191 20.0684 -22.1191 C 16.6992 -22.1191 14.502 -19.9219 14.502 -16.4551 L 14.502 -5.76172 C 14.502 5.0293 20.3125 10.791 31.1523 10.791 Z"/>
  </g>
  <g id="Medium-M" transform="matrix(1 0 0 1 1674.07 1126)">
   <path d="M 19.5312 -49.5117 C 22.5098 -49.5117 24.4141 -51.416 24.4141 -54.4434 L 24.4141 -63.916 C 24.4141 -68.6523 26.8555 -70.9473 31.3477 -70.9473 L 113.623 -70.9473 C 118.066 -70.9473 120.557 -68.6523 120.557 -63.916 L 120.557 -54.4434 C 120.557 -51.416 122.461 -49.5117 125.439 -49.5117 C 128.516 -49.5117 130.322 -51.416 130.322 -54.4434 L 130.322 -64.7949 C 130.322 -75.2441 124.805 -80.7129 114.258 -80.7129 L 30.7129 -80.7129 C 20.166 -80.7129 14.6484 -75.2441 14.6484 -64.7949 L 14.6484 -54.4434 C 14.6484 -51.416 16.5527 -49.5117 19.5312 -49.5117 Z M 72.4121 -14.209 C 75.4883 -14.209 77.1484 -16.2109 77.1484 -19.4824 L 77.1484 -48.7793 L 87.8906 -48.7793 C 90.2344 -48.7793 91.7969 -50.1953 91.7969 -52.4902 C 91.7969 -54.8828 90.2344 -56.25 87.8906 -56.25 L 57.0801 -56.25 C 54.7852 -56.25 53.1738 -54.8828 53.1738 -52.4902 C 53.1738 -50.1953 54.7852 -48.7793 57.0801 -48.7793 L 67.7246 -48.7793 L 67.7246 -19.4824 C 67.7246 -16.3086 69.3848 -14.209 72.4121 -14.209 Z M 19.5312 -29.1504 C 23.3887 -29.1504 26.5625 -32.3242 26.5625 -36.2305 C 26.5625 -40.0879 23.3887 -43.3105 19.5312 -43.3105 C 15.625 -43.3105 12.4512 -40.0879 12.4512 -36.2305 C 12.4512 -32.3242 15.625 -29.1504 19.5312 -29.1504 Z M 125.439 -29.1504 C 129.297 -29.1504 132.52 -32.3242 132.52 -36.2305 C 132.52 -40.0879 129.297 -43.3105 125.439 -43.3105 C 121.533 -43.3105 118.408 -40.1367 118.408 -36.2305 C 118.408 -32.3242 121.533 -29.1504 125.439 -29.1504 Z M 30.7129 10.3516 L 114.258 10.3516 C 124.805 10.3516 130.322 4.88281 130.322 -5.56641 L 130.322 -17.8711 C 130.322 -20.9473 128.467 -22.8027 125.439 -22.8027 C 122.412 -22.8027 120.557 -20.9473 120.557 -17.8711 L 120.557 -6.44531 C 120.557 -1.75781 118.066 0.585938 113.623 0.585938 L 31.3477 0.585938 C 26.8555 0.585938 24.4141 -1.75781 24.4141 -6.44531 L 24.4141 -17.8711 C 24.4141 -20.9473 22.5098 -22.8027 19.5312 -22.8027 C 16.5527 -22.8027 14.6484 -20.9473 14.6484 -17.8711 L 14.6484 -5.56641 C 14.6484 4.88281 20.166 10.3516 30.7129 10.3516 Z"/>
  </g>
  <g id="Regular-M" transform="matrix(1 0 0 1 1377.41 1126)">
   <path d="M 18.7988 -49.0234 C 21.2891 -49.0234 22.7539 -50.4883 22.7539 -53.0273 L 22.7539 -64.5996 C 22.7539 -69.6777 25.4395 -72.2656 30.3223 -72.2656 L 114.6 -72.2656 C 119.385 -72.2656 122.168 -69.6777 122.168 -64.5996 L 122.168 -53.0273 C 122.168 -50.4883 123.584 -49.0234 126.074 -49.0234 C 128.662 -49.0234 130.029 -50.4883 130.029 -53.0273 L 130.029 -64.9902 C 130.029 -75.0488 124.951 -80.127 114.697 -80.127 L 30.1758 -80.127 C 20.0195 -80.127 14.8926 -75.0977 14.8926 -64.9902 L 14.8926 -53.0273 C 14.8926 -50.4883 16.3086 -49.0234 18.7988 -49.0234 Z M 72.3633 -14.0137 C 74.9023 -14.0137 76.2695 -15.7227 76.2695 -18.4082 L 76.2695 -50.0488 L 88.4277 -50.0488 C 90.2832 -50.0488 91.6992 -51.3184 91.6992 -53.2715 C 91.6992 -55.2734 90.2832 -56.4453 88.4277 -56.4453 L 56.4941 -56.4453 C 54.6387 -56.4453 53.2227 -55.2734 53.2227 -53.2715 C 53.2227 -51.3184 54.6387 -50.0488 56.4941 -50.0488 L 68.5059 -50.0488 L 68.5059 -18.4082 C 68.5059 -15.8203 69.8242 -14.0137 72.3633 -14.0137 Z M 18.7988 -30.0781 C 22.3145 -30.0781 25.1465 -32.959 25.1465 -36.4746 C 25.1465 -39.9414 22.3145 -42.7734 18.7988 -42.7734 C 15.332 -42.7734 12.4512 -39.9414 12.4512 -36.4746 C 12.4512 -32.959 15.332 -30.0781 18.7988 -30.0781 Z M 126.074 -30.0781 C 129.541 -30.0781 132.422 -32.959 132.422 -36.4746 C 132.422 -39.9414 129.541 -42.7734 126.074 -42.7734 C 122.559 -42.7734 119.727 -39.9902 119.727 -36.4746 C 119.727 -32.959 122.559 -30.0781 126.074 -30.0781 Z M 30.1758 9.76562 L 114.697 9.76562 C 124.951 9.76562 130.029 4.6875 130.029 -5.37109 L 130.029 -19.7754 C 130.029 -22.3145 128.613 -23.7305 126.074 -23.7305 C 123.535 -23.7305 122.168 -22.3145 122.168 -19.7754 L 122.168 -5.76172 C 122.168 -0.683594 119.385 1.9043 114.6 1.9043 L 30.3223 1.9043 C 25.4395 1.9043 22.7539 -0.683594 22.7539 -5.76172 L 22.7539 -19.7754 C 22.7539 -22.3145 21.2891 -23.7305 18.7988 -23.7305 C 16.3086 -23.7305 14.8926 -22.3145 14.8926 -19.7754 L 14.8926 -5.37109 C 14.8926 4.73633 20.0195 9.76562 30.1758 9.76562 Z"/>
  </g>
  <g id="Light-M" transform="matrix(1 0 0 1 1080.65 1126)">
   <path d="M 18.3594 -48.1934 C 20.2148 -48.1934 21.3379 -49.3164 21.3379 -51.2207 L 21.3379 -64.7949 C 21.3379 -70.4102 24.3164 -73.3398 29.834 -73.3398 L 115.137 -73.3398 C 120.557 -73.3398 123.633 -70.4102 123.633 -64.7949 L 123.633 -51.2207 C 123.633 -49.3164 124.756 -48.1934 126.66 -48.1934 C 128.613 -48.1934 129.688 -49.3164 129.688 -51.2207 L 129.688 -65.0879 C 129.688 -74.5117 124.805 -79.3945 115.283 -79.3945 L 29.7363 -79.3945 C 20.2148 -79.3945 15.332 -74.5605 15.332 -65.0879 L 15.332 -51.2207 C 15.332 -49.3164 16.4551 -48.1934 18.3594 -48.1934 Z M 72.3633 -14.4043 C 74.3164 -14.4043 75.3906 -15.7227 75.3906 -17.7734 L 75.3906 -51.0254 L 88.2324 -51.0254 C 89.6973 -51.0254 90.7715 -52.0508 90.7715 -53.5645 C 90.7715 -55.127 89.6973 -56.1035 88.2324 -56.1035 L 56.7871 -56.1035 C 55.3223 -56.1035 54.248 -55.127 54.248 -53.5645 C 54.248 -52.0508 55.3223 -51.0254 56.7871 -51.0254 L 69.3359 -51.0254 L 69.3359 -17.7734 C 69.3359 -15.7715 70.459 -14.4043 72.3633 -14.4043 Z M 18.3594 -30.2246 C 21.582 -30.2246 24.2188 -32.8125 24.2188 -36.084 C 24.2188 -39.3066 21.582 -41.9434 18.3594 -41.9434 C 15.1367 -41.9434 12.4512 -39.3066 12.4512 -36.084 C 12.4512 -32.8125 15.1367 -30.2246 18.3594 -30.2246 Z M 126.66 -30.2246 C 129.834 -30.2246 132.52 -32.8125 132.52 -36.084 C 132.52 -39.3066 129.834 -41.9434 126.66 -41.9434 C 123.389 -41.9434 120.752 -39.3555 120.752 -36.084 C 120.752 -32.8125 123.389 -30.2246 126.66 -30.2246 Z M 29.7363 9.0332 L 115.283 9.0332 C 124.805 9.0332 129.688 4.15039 129.688 -5.22461 L 129.688 -20.7031 C 129.688 -22.6074 128.564 -23.7305 126.66 -23.7305 C 124.756 -23.7305 123.633 -22.6074 123.633 -20.7031 L 123.633 -5.56641 C 123.633 0.0976562 120.557 2.97852 115.137 2.97852 L 29.834 2.97852 C 24.3164 2.97852 21.3379 0.0976562 21.3379 -5.56641 L 21.3379 -20.7031 C 21.3379 -22.6074 20.2148 -23.7305 18.3594 -23.7305 C 16.4551 -23.7305 15.332 -22.6074 15.332 -20.7031 L 15.332 -5.22461 C 15.332 4.19922 20.2148 9.0332 29.7363 9.0332 Z"/>
  </g>
  <g id="Thin-M" transform="matrix(1 0 0 1 783.888 1126)">
   <path d="M 17.7246 -47.0703 C 18.7988 -47.0703 19.5312 -47.8027 19.5312 -48.877 L 19.5312 -65.0391 C 19.5312 -71.4355 22.8516 -74.7559 29.1992 -74.7559 L 115.918 -74.7559 C 122.07 -74.7559 125.586 -71.4355 125.586 -65.0391 L 125.586 -48.877 C 125.586 -47.8027 126.318 -47.0703 127.393 -47.0703 C 128.516 -47.0703 129.199 -47.8027 129.199 -48.877 L 129.199 -65.2344 C 129.199 -73.7305 124.707 -78.3691 116.064 -78.3691 L 29.1016 -78.3691 C 20.459 -78.3691 15.918 -73.877 15.918 -65.2344 L 15.918 -48.877 C 15.918 -47.8027 16.6504 -47.0703 17.7246 -47.0703 Z M 72.3633 -14.9414 C 73.5352 -14.9414 74.2188 -15.7227 74.2188 -16.8945 L 74.2188 -52.2949 L 87.9395 -52.2949 C 88.916 -52.2949 89.5996 -53.0273 89.5996 -53.9551 C 89.5996 -54.9805 88.916 -55.6152 87.9395 -55.6152 L 57.2266 -55.6152 C 56.2988 -55.6152 55.5664 -54.9805 55.5664 -53.9551 C 55.5664 -53.0273 56.2988 -52.2949 57.2266 -52.2949 L 70.5078 -52.2949 L 70.5078 -16.8945 C 70.5078 -15.7715 71.2402 -14.9414 72.3633 -14.9414 Z M 17.7246 -30.3711 C 20.6055 -30.3711 22.9492 -32.7148 22.9492 -35.5957 C 22.9492 -38.5254 20.6055 -40.8203 17.7246 -40.8203 C 14.8438 -40.8203 12.4512 -38.5254 12.4512 -35.5957 C 12.4512 -32.7148 14.8438 -30.3711 17.7246 -30.3711 Z M 127.393 -30.3711 C 130.225 -30.3711 132.617 -32.7148 132.617 -35.5957 C 132.617 -38.5254 130.225 -40.8203 127.393 -40.8203 C 124.512 -40.8203 122.119 -38.5254 122.119 -35.5957 C 122.119 -32.7148 124.512 -30.3711 127.393 -30.3711 Z M 29.1016 8.05664 L 116.064 8.05664 C 124.707 8.05664 129.199 3.4668 129.199 -5.0293 L 129.199 -21.9238 C 129.199 -22.998 128.516 -23.7305 127.393 -23.7305 C 126.318 -23.7305 125.586 -22.998 125.586 -21.9238 L 125.586 -5.22461 C 125.586 1.12305 122.07 4.44336 115.918 4.44336 L 29.1992 4.44336 C 22.8516 4.44336 19.5312 1.12305 19.5312 -5.22461 L 19.5312 -21.9238 C 19.5312 -22.998 18.7988 -23.7305 17.7246 -23.7305 C 16.6504 -23.7305 15.918 -22.998 15.918 -21.9238 L 15.918 -5.0293 C 15.918 3.56445 20.459 8.05664 29.1016 8.05664 Z"/>
  </g>
  <g id="Ultralight-M" transform="matrix(1 0 0 1 487.153 1126)">
   <path d="M 17.4316 -46.4844 C 18.0664 -46.4844 18.6035 -47.0215 18.6035 -47.7051 L 18.6035 -65.1855 C 18.6035 -71.9727 22.1191 -75.4395 28.8574 -75.4395 L 116.309 -75.4395 C 122.852 -75.4395 126.562 -71.9727 126.562 -65.1855 L 126.562 -47.7051 C 126.562 -47.0215 127.148 -46.4844 127.783 -46.4844 C 128.516 -46.4844 128.955 -47.0215 128.955 -47.7051 L 128.955 -65.2832 C 128.955 -73.3887 124.609 -77.832 116.455 -77.832 L 28.7598 -77.832 C 20.5566 -77.832 16.2109 -73.4863 16.2109 -65.2832 L 16.2109 -47.7051 C 16.2109 -47.0215 16.748 -46.4844 17.4316 -46.4844 Z M 72.3633 -15.2344 C 73.1445 -15.2344 73.584 -15.7715 73.584 -16.4551 L 73.584 -52.9297 L 87.793 -52.9297 C 88.5254 -52.9297 89.0137 -53.5156 89.0137 -54.1504 C 89.0137 -54.8828 88.5254 -55.3711 87.793 -55.3711 L 57.4707 -55.3711 C 56.7871 -55.3711 56.25 -54.8828 56.25 -54.1504 C 56.25 -53.5156 56.7871 -52.9297 57.4707 -52.9297 L 71.0938 -52.9297 L 71.0938 -16.4551 C 71.0938 -15.7715 71.6309 -15.2344 72.3633 -15.2344 Z M 17.4316 -30.4688 C 20.0684 -30.4688 22.3145 -32.6172 22.3145 -35.3516 C 22.3145 -38.0859 20.0684 -40.2832 17.4316 -40.2832 C 14.6973 -40.2832 12.4512 -38.0859 12.4512 -35.3516 C 12.4512 -32.6172 14.6973 -30.4688 17.4316 -30.4688 Z M 127.783 -30.4688 C 130.469 -30.4688 132.666 -32.6172 132.666 -35.3516 C 132.666 -38.0859 130.469 -40.2832 127.783 -40.2832 C 125.049 -40.2832 122.803 -38.0859 122.803 -35.3516 C 122.803 -32.6172 125.049 -30.4688 127.783 -30.4688 Z M 28.7598 7.56836 L 116.455 7.56836 C 124.609 7.56836 128.955 3.125 128.955 -4.98047 L 128.955 -22.5586 C 128.955 -23.1934 128.516 -23.7305 127.783 -23.7305 C 127.148 -23.7305 126.562 -23.1934 126.562 -22.5586 L 126.562 -5.07812 C 126.562 1.66016 122.852 5.17578 116.309 5.17578 L 28.8574 5.17578 C 22.1191 5.17578 18.6035 1.66016 18.6035 -5.07812 L 18.6035 -22.5586 C 18.6035 -23.1934 18.0664 -23.7305 17.4316 -23.7305 C 16.748 -23.7305 16.2109 -23.1934 16.2109 -22.5586 L 16.2109 -4.98047 C 16.2109 3.22266 20.5566 7.56836 28.7598 7.56836 Z"/>
  </g>
  <g id="Black-S" transform="matrix(1 0 0 1 2876.47 696)">
   <path d="M 17.8223 -48.1445 C 21.9238 -48.1445 24.9023 -51.1719 24.9023 -55.3223 L 24.9023 -55.3711 C 24.9023 -57.8125 25.9766 -58.6914 28.2227 -58.6914 L 85.6445 -58.6914 C 87.8906 -58.6914 88.9648 -57.8125 88.9648 -55.3711 L 88.9648 -55.3223 C 88.9648 -51.1719 91.9434 -48.1445 96.0449 -48.1445 C 100.146 -48.1445 103.125 -51.1719 103.125 -55.3223 L 103.125 -57.6172 C 103.125 -67.1875 97.4609 -72.8516 87.8906 -72.8516 L 25.9766 -72.8516 C 16.4062 -72.8516 10.7422 -67.1875 10.7422 -57.6172 L 10.7422 -55.3223 C 10.7422 -51.1719 13.7207 -48.1445 17.8223 -48.1445 Z M 56.9336 -19.3848 C 61.084 -19.3848 63.5254 -22.1191 63.5254 -26.6113 L 63.5254 -41.3086 L 67.041 -41.3086 C 70.459 -41.3086 72.4121 -43.1152 72.4121 -46.1426 C 72.4121 -49.1699 70.459 -50.9766 67.041 -50.9766 L 46.8262 -50.9766 C 43.4082 -50.9766 41.4551 -49.1699 41.4551 -46.1426 C 41.4551 -43.1152 43.4082 -41.3086 46.8262 -41.3086 L 50.3906 -41.3086 L 50.3906 -26.6113 C 50.3906 -22.0703 52.7832 -19.3848 56.9336 -19.3848 Z M 17.7734 -27.2461 C 22.168 -27.2461 25.7812 -30.8594 25.7812 -35.2539 C 25.7812 -39.6484 22.168 -43.2617 17.7734 -43.2617 C 13.3789 -43.2617 9.76562 -39.6484 9.76562 -35.2539 C 9.76562 -30.8594 13.3789 -27.2461 17.7734 -27.2461 Z M 96.0938 -27.2461 C 100.488 -27.2461 104.102 -30.8594 104.102 -35.2539 C 104.102 -39.6484 100.488 -43.2617 96.0938 -43.2617 C 91.6992 -43.2617 88.0859 -39.6484 88.0859 -35.2539 C 88.0859 -30.8594 91.6992 -27.2461 96.0938 -27.2461 Z M 25.9766 2.44141 L 87.8906 2.44141 C 97.4609 2.44141 103.125 -3.22266 103.125 -12.793 L 103.125 -15.1855 C 103.125 -19.3359 100.146 -22.3633 96.0449 -22.3633 C 91.9434 -22.3633 88.9648 -19.3359 88.9648 -15.1855 L 88.9648 -15.0391 C 88.9648 -12.5977 87.8906 -11.7188 85.6445 -11.7188 L 28.2227 -11.7188 C 25.9766 -11.7188 24.9023 -12.5977 24.9023 -15.0391 L 24.9023 -15.1855 C 24.9023 -19.3359 21.9238 -22.3633 17.8223 -22.3633 C 13.7207 -22.3633 10.7422 -19.3359 10.7422 -15.1855 L 10.7422 -12.793 C 10.7422 -3.22266 16.4062 2.44141 25.9766 2.44141 Z"/>
  </g>
  <g id="Heavy-S" transform="matrix(1 0 0 1 2579.8 696)">
   <path d="M 17.1387 -47.7539 C 20.8008 -47.7539 23.3887 -50.3418 23.3887 -54.0527 L 23.3887 -56.0059 C 23.3887 -58.7402 24.6582 -59.8633 27.2461 -59.8633 L 86.5723 -59.8633 C 89.1113 -59.8633 90.3809 -58.7402 90.3809 -56.0059 L 90.3809 -54.0527 C 90.3809 -50.3418 92.9688 -47.7539 96.6309 -47.7539 C 100.293 -47.7539 102.881 -50.3418 102.881 -54.0527 L 102.881 -57.8125 C 102.881 -67.0898 97.5586 -72.3633 88.2812 -72.3633 L 25.4883 -72.3633 C 16.2109 -72.3633 10.8887 -67.0898 10.8887 -57.8125 L 10.8887 -54.0527 C 10.8887 -50.3418 13.4766 -47.7539 17.1387 -47.7539 Z M 56.8848 -19.1406 C 60.5957 -19.1406 62.7441 -21.582 62.7441 -25.5859 L 62.7441 -42.5293 L 67.5781 -42.5293 C 70.6055 -42.5293 72.3633 -44.1406 72.3633 -46.875 C 72.3633 -49.6094 70.6055 -51.2207 67.5781 -51.2207 L 46.1914 -51.2207 C 43.1641 -51.2207 41.4062 -49.6094 41.4062 -46.875 C 41.4062 -44.1406 43.1641 -42.5293 46.1914 -42.5293 L 51.0742 -42.5293 L 51.0742 -25.5859 C 51.0742 -21.582 53.1738 -19.1406 56.8848 -19.1406 Z M 17.0898 -28.1738 C 21.1426 -28.1738 24.4629 -31.4941 24.4629 -35.498 C 24.4629 -39.5508 21.1426 -42.8711 17.0898 -42.8711 C 13.0859 -42.8711 9.76562 -39.5508 9.76562 -35.498 C 9.76562 -31.4941 13.0859 -28.1738 17.0898 -28.1738 Z M 96.6797 -28.1738 C 100.684 -28.1738 104.004 -31.4941 104.004 -35.498 C 104.004 -39.5508 100.684 -42.8711 96.6797 -42.8711 C 92.627 -42.8711 89.3066 -39.5508 89.3066 -35.498 C 89.3066 -31.4941 92.627 -28.1738 96.6797 -28.1738 Z M 25.4883 1.95312 L 88.2812 1.95312 C 97.5586 1.95312 102.881 -3.32031 102.881 -12.5977 L 102.881 -16.9434 C 102.881 -20.6543 100.293 -23.291 96.6309 -23.291 C 92.9688 -23.291 90.3809 -20.6543 90.3809 -16.9434 L 90.3809 -14.4043 C 90.3809 -11.6699 89.1113 -10.5469 86.5723 -10.5469 L 27.2461 -10.5469 C 24.6582 -10.5469 23.3887 -11.6699 23.3887 -14.4043 L 23.3887 -16.9434 C 23.3887 -20.6543 20.8008 -23.291 17.1387 -23.291 C 13.4766 -23.291 10.8887 -20.6543 10.8887 -16.9434 L 10.8887 -12.5977 C 10.8887 -3.32031 16.2109 1.95312 25.4883 1.95312 Z"/>
  </g>
  <g id="Bold-S" transform="matrix(1 0 0 1 2283.14 696)">
   <path d="M 16.4062 -47.3145 C 19.5801 -47.3145 21.6797 -49.4629 21.6797 -52.6855 L 21.6797 -56.7383 C 21.6797 -59.8145 23.2422 -61.2305 26.123 -61.2305 L 87.5488 -61.2305 C 90.4297 -61.2305 91.9922 -59.8145 91.9922 -56.7383 L 91.9922 -52.6855 C 91.9922 -49.4629 94.0918 -47.3145 97.2656 -47.3145 C 100.488 -47.3145 102.588 -49.4629 102.588 -52.6855 L 102.588 -58.0566 C 102.588 -66.9434 97.7051 -71.8262 88.7207 -71.8262 L 24.9512 -71.8262 C 16.0156 -71.8262 11.084 -66.9434 11.084 -58.0566 L 11.084 -52.6855 C 11.084 -49.4629 13.2324 -47.3145 16.4062 -47.3145 Z M 56.8359 -18.8965 C 60.0586 -18.8965 61.8652 -21.0449 61.8652 -24.4629 L 61.8652 -43.8477 L 68.2129 -43.8477 C 70.752 -43.8477 72.3633 -45.3125 72.3633 -47.6562 C 72.3633 -50.0977 70.752 -51.5137 68.2129 -51.5137 L 45.459 -51.5137 C 42.9199 -51.5137 41.3574 -50.0977 41.3574 -47.6562 C 41.3574 -45.3125 42.9199 -43.8477 45.459 -43.8477 L 51.8066 -43.8477 L 51.8066 -24.4629 C 51.8066 -21.0449 53.6133 -18.8965 56.8359 -18.8965 Z M 16.3574 -29.1992 C 20.0195 -29.1992 22.998 -32.1777 22.998 -35.791 C 22.998 -39.4531 20.0195 -42.4316 16.3574 -42.4316 C 12.7441 -42.4316 9.76562 -39.4531 9.76562 -35.791 C 9.76562 -32.1777 12.7441 -29.1992 16.3574 -29.1992 Z M 97.3145 -29.1992 C 100.928 -29.1992 103.906 -32.1777 103.906 -35.791 C 103.906 -39.4531 100.928 -42.4316 97.3145 -42.4316 C 93.6523 -42.4316 90.7227 -39.4531 90.7227 -35.791 C 90.7227 -32.1777 93.6523 -29.1992 97.3145 -29.1992 Z M 24.9512 1.41602 L 88.7207 1.41602 C 97.7051 1.41602 102.588 -3.4668 102.588 -12.3535 L 102.588 -18.8965 C 102.588 -22.1191 100.439 -24.3164 97.2656 -24.3164 C 94.0918 -24.3164 91.9922 -22.1191 91.9922 -18.8965 L 91.9922 -13.6719 C 91.9922 -10.5957 90.4297 -9.17969 87.5488 -9.17969 L 26.123 -9.17969 C 23.2422 -9.17969 21.6797 -10.5957 21.6797 -13.6719 L 21.6797 -18.8965 C 21.6797 -22.1191 19.5801 -24.3164 16.4062 -24.3164 C 13.2324 -24.3164 11.084 -22.1191 11.084 -18.8965 L 11.084 -12.3535 C 11.084 -3.4668 16.0156 1.41602 24.9512 1.41602 Z"/>
  </g>
  <g id="Semibold-S" transform="matrix(1 0 0 1 1986.46 696)">
   <path d="M 15.8691 -46.9727 C 18.7012 -46.9727 20.5078 -48.8281 20.5078 -51.709 L 20.5078 -57.2754 C 20.5078 -60.5469 22.2168 -62.1094 25.3418 -62.1094 L 88.2812 -62.1094 C 91.3574 -62.1094 93.0664 -60.5469 93.0664 -57.2754 L 93.0664 -51.709 C 93.0664 -48.8281 94.9219 -46.9727 97.7539 -46.9727 C 100.586 -46.9727 102.393 -48.8281 102.393 -51.709 L 102.393 -58.2031 C 102.393 -66.8457 97.8027 -71.4355 89.0625 -71.4355 L 24.5605 -71.4355 C 15.8691 -71.4355 11.2305 -66.8457 11.2305 -58.2031 L 11.2305 -51.709 C 11.2305 -48.8281 13.0371 -46.9727 15.8691 -46.9727 Z M 56.7871 -18.75 C 59.668 -18.75 61.2793 -20.6055 61.2793 -23.7305 L 61.2793 -44.7754 L 68.6523 -44.7754 C 70.8496 -44.7754 72.3145 -46.0938 72.3145 -48.2422 C 72.3145 -50.4395 70.8496 -51.709 68.6523 -51.709 L 44.9707 -51.709 C 42.7734 -51.709 41.3086 -50.4395 41.3086 -48.2422 C 41.3086 -46.0938 42.7734 -44.7754 44.9707 -44.7754 L 52.3438 -44.7754 L 52.3438 -23.7305 C 52.3438 -20.6543 53.9062 -18.75 56.7871 -18.75 Z M 15.8691 -29.8828 C 19.2383 -29.8828 21.9727 -32.666 21.9727 -36.0352 C 21.9727 -39.3555 19.2383 -42.0898 15.8691 -42.0898 C 12.5 -42.0898 9.76562 -39.3555 9.76562 -36.0352 C 9.76562 -32.666 12.5 -29.8828 15.8691 -29.8828 Z M 97.7539 -29.8828 C 101.074 -29.8828 103.857 -32.666 103.857 -36.0352 C 103.857 -39.3555 101.074 -42.0898 97.7539 -42.0898 C 94.3848 -42.0898 91.6504 -39.4043 91.6504 -36.0352 C 91.6504 -32.666 94.3848 -29.8828 97.7539 -29.8828 Z M 24.5605 1.02539 L 89.0625 1.02539 C 97.8027 1.02539 102.393 -3.56445 102.393 -12.1582 L 102.393 -20.2637 C 102.393 -23.1445 100.586 -25 97.7539 -25 C 94.873 -25 93.0664 -23.1445 93.0664 -20.2637 L 93.0664 -13.1348 C 93.0664 -9.86328 91.3574 -8.25195 88.2812 -8.25195 L 25.3418 -8.25195 C 22.2168 -8.25195 20.5078 -9.86328 20.5078 -13.1348 L 20.5078 -20.2637 C 20.5078 -23.1445 18.7012 -25 15.8691 -25 C 13.0371 -25 11.2305 -23.1445 11.2305 -20.2637 L 11.2305 -12.1582 C 11.2305 -3.56445 15.8691 1.02539 24.5605 1.02539 Z"/>
  </g>
  <g id="Medium-S" transform="matrix(1 0 0 1 1689.77 696)">
   <path d="M 15.4785 -46.7773 C 18.0664 -46.7773 19.6289 -48.3398 19.6289 -50.9766 L 19.6289 -57.6172 C 19.6289 -61.1328 21.4844 -62.8418 24.7559 -62.8418 L 88.8184 -62.8418 C 92.0898 -62.8418 93.8965 -61.1328 93.8965 -57.6172 L 93.8965 -50.9766 C 93.8965 -48.3398 95.5078 -46.7773 98.0957 -46.7773 C 100.684 -46.7773 102.246 -48.3398 102.246 -50.9766 L 102.246 -58.3496 C 102.246 -66.7969 97.8516 -71.1426 89.3066 -71.1426 L 24.2676 -71.1426 C 15.7715 -71.1426 11.3281 -66.7969 11.3281 -58.3496 L 11.3281 -50.9766 C 11.3281 -48.3398 12.8906 -46.7773 15.4785 -46.7773 Z M 56.7383 -18.6035 C 59.375 -18.6035 60.791 -20.3125 60.791 -23.1445 L 60.791 -45.459 L 68.9941 -45.459 C 70.9473 -45.459 72.3145 -46.6797 72.3145 -48.6816 C 72.3145 -50.6836 70.9473 -51.8555 68.9941 -51.8555 L 44.5801 -51.8555 C 42.627 -51.8555 41.2598 -50.6836 41.2598 -48.6816 C 41.2598 -46.6797 42.627 -45.459 44.5801 -45.459 L 52.7344 -45.459 L 52.7344 -23.1445 C 52.7344 -20.4102 54.1504 -18.6035 56.7383 -18.6035 Z M 15.4785 -30.4199 C 18.6523 -30.4199 21.1914 -33.0078 21.1914 -36.1816 C 21.1914 -39.3066 18.6523 -41.8945 15.4785 -41.8945 C 12.3535 -41.8945 9.76562 -39.3066 9.76562 -36.1816 C 9.76562 -33.0078 12.3535 -30.4199 15.4785 -30.4199 Z M 98.0957 -30.4199 C 101.221 -30.4199 103.809 -33.0078 103.809 -36.1816 C 103.809 -39.3066 101.221 -41.8945 98.0957 -41.8945 C 94.9219 -41.8945 92.3828 -39.3066 92.3828 -36.1816 C 92.3828 -33.0078 94.9219 -30.4199 98.0957 -30.4199 Z M 24.2676 0.732422 L 89.3066 0.732422 C 97.8516 0.732422 102.246 -3.61328 102.246 -12.0605 L 102.246 -21.2891 C 102.246 -23.9258 100.684 -25.5371 98.0957 -25.5371 C 95.459 -25.5371 93.8965 -23.9258 93.8965 -21.2891 L 93.8965 -12.7441 C 93.8965 -9.27734 92.0898 -7.56836 88.8184 -7.56836 L 24.7559 -7.56836 C 21.4844 -7.56836 19.6289 -9.27734 19.6289 -12.7441 L 19.6289 -21.2891 C 19.6289 -23.9258 18.0664 -25.5371 15.4785 -25.5371 C 12.8906 -25.5371 11.3281 -23.9258 11.3281 -21.2891 L 11.3281 -12.0605 C 11.3281 -3.61328 15.7715 0.732422 24.2676 0.732422 Z"/>
  </g>
  <g id="Regular-S" transform="matrix(1 0 0 1 1393.11 696)">
   <path d="M 14.9902 -46.4355 C 17.2363 -46.4355 18.5059 -47.7051 18.5059 -50 L 18.5059 -58.1543 C 18.5059 -61.8164 20.459 -63.7207 23.9746 -63.7207 L 89.502 -63.7207 C 93.0176 -63.7207 95.0195 -61.8164 95.0195 -58.1543 L 95.0195 -50 C 95.0195 -47.7051 96.2891 -46.4355 98.5352 -46.4355 C 100.83 -46.4355 102.051 -47.7051 102.051 -50 L 102.051 -58.4961 C 102.051 -66.6992 97.9492 -70.8008 89.5996 -70.8008 L 23.877 -70.8008 C 15.625 -70.8008 11.4258 -66.6992 11.4258 -58.4961 L 11.4258 -50 C 11.4258 -47.7051 12.6953 -46.4355 14.9902 -46.4355 Z M 56.6895 -18.4082 C 58.9844 -18.4082 60.2051 -19.9219 60.2051 -22.3633 L 60.2051 -46.3867 L 69.3848 -46.3867 C 71.0449 -46.3867 72.2656 -47.4609 72.2656 -49.2188 C 72.2656 -51.0254 71.0449 -52.0508 69.3848 -52.0508 L 44.0918 -52.0508 C 42.4316 -52.0508 41.2109 -51.0254 41.2109 -49.2188 C 41.2109 -47.4609 42.4316 -46.3867 44.0918 -46.3867 L 53.2715 -46.3867 L 53.2715 -22.3633 C 53.2715 -20.0195 54.4434 -18.4082 56.6895 -18.4082 Z M 14.9902 -31.1035 C 17.8711 -31.1035 20.166 -33.4961 20.166 -36.377 C 20.166 -39.209 17.8711 -41.5527 14.9902 -41.5527 C 12.1094 -41.5527 9.76562 -39.209 9.76562 -36.377 C 9.76562 -33.4961 12.1094 -31.1035 14.9902 -31.1035 Z M 98.5352 -31.1035 C 101.367 -31.1035 103.711 -33.4961 103.711 -36.377 C 103.711 -39.209 101.367 -41.5527 98.5352 -41.5527 C 95.6543 -41.5527 93.3105 -39.2578 93.3105 -36.377 C 93.3105 -33.4961 95.6543 -31.1035 98.5352 -31.1035 Z M 23.877 0.390625 L 89.5996 0.390625 C 97.9492 0.390625 102.051 -3.71094 102.051 -11.9141 L 102.051 -22.6562 C 102.051 -24.9512 100.781 -26.2207 98.5352 -26.2207 C 96.2402 -26.2207 95.0195 -24.9512 95.0195 -22.6562 L 95.0195 -12.2559 C 95.0195 -8.54492 93.0176 -6.68945 89.502 -6.68945 L 23.9746 -6.68945 C 20.459 -6.68945 18.5059 -8.54492 18.5059 -12.2559 L 18.5059 -22.6562 C 18.5059 -24.9512 17.2363 -26.2207 14.9902 -26.2207 C 12.6953 -26.2207 11.4258 -24.9512 11.4258 -22.6562 L 11.4258 -11.9141 C 11.4258 -3.71094 15.625 0.390625 23.877 0.390625 Z"/>
  </g>
  <g id="Light-S" transform="matrix(1 0 0 1 1096.35 696)">
   <path d="M 14.5508 -45.7031 C 16.2598 -45.7031 17.2852 -46.7285 17.2852 -48.4375 L 17.2852 -58.3008 C 17.2852 -62.5 19.4824 -64.6973 23.584 -64.6973 L 89.9902 -64.6973 C 93.9941 -64.6973 96.2891 -62.5 96.2891 -58.3008 L 96.2891 -48.4375 C 96.2891 -46.7285 97.3145 -45.7031 99.0234 -45.7031 C 100.781 -45.7031 101.758 -46.7285 101.758 -48.4375 L 101.758 -58.5938 C 101.758 -66.2109 97.8516 -70.1172 90.0879 -70.1172 L 23.4863 -70.1172 C 15.7715 -70.1172 11.8652 -66.2598 11.8652 -58.5938 L 11.8652 -48.4375 C 11.8652 -46.7285 12.8418 -45.7031 14.5508 -45.7031 Z M 56.6895 -18.75 C 58.4473 -18.75 59.4238 -19.9219 59.4238 -21.7773 L 59.4238 -47.2168 L 69.1895 -47.2168 C 70.5078 -47.2168 71.4844 -48.1445 71.4844 -49.4629 C 71.4844 -50.8789 70.5078 -51.709 69.1895 -51.709 L 44.3848 -51.709 C 43.1152 -51.709 42.1387 -50.8789 42.1387 -49.4629 C 42.1387 -48.1445 43.1152 -47.2168 44.3848 -47.2168 L 54.0039 -47.2168 L 54.0039 -21.7773 C 54.0039 -20.0195 54.9805 -18.75 56.6895 -18.75 Z M 14.5508 -31.25 C 17.1875 -31.25 19.3359 -33.3984 19.3359 -36.0352 C 19.3359 -38.6719 17.1875 -40.8203 14.5508 -40.8203 C 11.9141 -40.8203 9.76562 -38.6719 9.76562 -36.0352 C 9.76562 -33.3984 11.9141 -31.25 14.5508 -31.25 Z M 99.0234 -31.25 C 101.611 -31.25 103.809 -33.3984 103.809 -36.0352 C 103.809 -38.6719 101.611 -40.8203 99.0234 -40.8203 C 96.3867 -40.8203 94.2383 -38.7207 94.2383 -36.0352 C 94.2383 -33.3984 96.3867 -31.25 99.0234 -31.25 Z M 23.4863 -0.292969 L 90.0879 -0.292969 C 97.8516 -0.292969 101.758 -4.15039 101.758 -11.7676 L 101.758 -23.4863 C 101.758 -25.1953 100.732 -26.2207 99.0234 -26.2207 C 97.2656 -26.2207 96.2891 -25.1953 96.2891 -23.4863 L 96.2891 -12.0605 C 96.2891 -7.86133 93.9941 -5.71289 89.9902 -5.71289 L 23.584 -5.71289 C 19.4824 -5.71289 17.2852 -7.86133 17.2852 -12.0605 L 17.2852 -23.4863 C 17.2852 -25.1953 16.2598 -26.2207 14.5508 -26.2207 C 12.8418 -26.2207 11.8652 -25.1953 11.8652 -23.4863 L 11.8652 -11.7676 C 11.8652 -4.15039 15.7715 -0.292969 23.4863 -0.292969 Z"/>
  </g>
  <g id="Thin-S" transform="matrix(1 0 0 1 799.586 696)">
   <path d="M 14.0137 -44.7266 C 14.9902 -44.7266 15.6738 -45.3613 15.6738 -46.3867 L 15.6738 -58.5449 C 15.6738 -63.3789 18.2129 -65.918 22.998 -65.918 L 90.6738 -65.918 C 95.3613 -65.918 98.0469 -63.3789 98.0469 -58.5449 L 98.0469 -46.3867 C 98.0469 -45.3613 98.6816 -44.7266 99.6582 -44.7266 C 100.732 -44.7266 101.318 -45.3613 101.318 -46.3867 L 101.318 -58.6914 C 101.318 -65.5762 97.7539 -69.2383 90.7715 -69.2383 L 22.9004 -69.2383 C 15.9668 -69.2383 12.3535 -65.625 12.3535 -58.6914 L 12.3535 -46.3867 C 12.3535 -45.3613 13.0371 -44.7266 14.0137 -44.7266 Z M 56.6895 -19.2383 C 57.7637 -19.2383 58.3984 -19.9707 58.3984 -21.0449 L 58.3984 -48.3398 L 68.9453 -48.3398 C 69.8242 -48.3398 70.459 -48.9746 70.459 -49.8047 C 70.459 -50.7324 69.8242 -51.3184 68.9453 -51.3184 L 44.7754 -51.3184 C 43.9453 -51.3184 43.3105 -50.7324 43.3105 -49.8047 C 43.3105 -48.9746 43.9453 -48.3398 44.7754 -48.3398 L 55.0293 -48.3398 L 55.0293 -21.0449 C 55.0293 -19.9707 55.6641 -19.2383 56.6895 -19.2383 Z M 14.0137 -31.3965 C 16.3086 -31.3965 18.2129 -33.3008 18.2129 -35.6445 C 18.2129 -37.9395 16.3086 -39.8438 14.0137 -39.8438 C 11.6699 -39.8438 9.76562 -37.9395 9.76562 -35.6445 C 9.76562 -33.3008 11.6699 -31.3965 14.0137 -31.3965 Z M 99.6582 -31.3965 C 101.953 -31.3965 103.906 -33.3008 103.906 -35.6445 C 103.906 -37.9395 101.953 -39.8438 99.6582 -39.8438 C 97.3145 -39.8438 95.4102 -37.9883 95.4102 -35.6445 C 95.4102 -33.3008 97.3145 -31.3965 99.6582 -31.3965 Z M 22.9004 -1.12305 L 90.7715 -1.12305 C 97.7539 -1.12305 101.318 -4.78516 101.318 -11.6211 L 101.318 -24.5605 C 101.318 -25.5371 100.732 -26.2207 99.6582 -26.2207 C 98.6816 -26.2207 98.0469 -25.5371 98.0469 -24.5605 L 98.0469 -11.8164 C 98.0469 -6.93359 95.3613 -4.44336 90.6738 -4.44336 L 22.998 -4.44336 C 18.2129 -4.44336 15.6738 -6.93359 15.6738 -11.8164 L 15.6738 -24.5605 C 15.6738 -25.5371 14.9902 -26.2207 14.0137 -26.2207 C 13.0371 -26.2207 12.3535 -25.5371 12.3535 -24.5605 L 12.3535 -11.6211 C 12.3535 -4.6875 15.9668 -1.12305 22.9004 -1.12305 Z"/>
  </g>
  <g id="Ultralight-S" transform="matrix(1 0 0 1 502.851 696)">
   <path d="M 13.7207 -44.1895 C 14.3555 -44.1895 14.8438 -44.6777 14.8438 -45.3125 L 14.8438 -58.6426 C 14.8438 -63.8672 17.5293 -66.5527 22.7051 -66.5527 L 91.0156 -66.5527 C 96.0449 -66.5527 98.9258 -63.8672 98.9258 -58.6426 L 98.9258 -45.3125 C 98.9258 -44.6777 99.4141 -44.1895 100 -44.1895 C 100.684 -44.1895 101.123 -44.6777 101.123 -45.3125 L 101.123 -58.7891 C 101.123 -65.2344 97.6562 -68.75 91.1133 -68.75 L 22.6074 -68.75 C 16.0645 -68.75 12.6465 -65.2832 12.6465 -58.7891 L 12.6465 -45.3125 C 12.6465 -44.6777 13.1348 -44.1895 13.7207 -44.1895 Z M 56.6895 -19.4824 C 57.4219 -19.4824 57.8613 -19.9707 57.8613 -20.6543 L 57.8613 -48.9258 L 68.8477 -48.9258 C 69.4824 -48.9258 69.9219 -49.4141 69.9219 -50 C 69.9219 -50.6348 69.4824 -51.0742 68.8477 -51.0742 L 44.9707 -51.0742 C 44.3848 -51.0742 43.8965 -50.6348 43.8965 -50 C 43.8965 -49.4141 44.3848 -48.9258 44.9707 -48.9258 L 55.5664 -48.9258 L 55.5664 -20.6543 C 55.5664 -19.9707 56.0059 -19.4824 56.6895 -19.4824 Z M 13.7207 -31.4941 C 15.8691 -31.4941 17.6758 -33.2031 17.6758 -35.4004 C 17.6758 -37.5977 15.8691 -39.3066 13.7207 -39.3066 C 11.5723 -39.3066 9.76562 -37.5977 9.76562 -35.4004 C 9.76562 -33.2031 11.5723 -31.4941 13.7207 -31.4941 Z M 100 -31.4941 C 102.148 -31.4941 103.955 -33.2031 103.955 -35.4004 C 103.955 -37.5977 102.148 -39.3066 100 -39.3066 C 97.8516 -39.3066 96.0449 -37.5977 96.0449 -35.4004 C 96.0449 -33.2031 97.8516 -31.4941 100 -31.4941 Z M 22.6074 -1.5625 L 91.1133 -1.5625 C 97.6562 -1.5625 101.123 -5.12695 101.123 -11.5234 L 101.123 -25.0977 C 101.123 -25.7324 100.684 -26.2207 100 -26.2207 C 99.4141 -26.2207 98.9258 -25.7324 98.9258 -25.0977 L 98.9258 -11.6699 C 98.9258 -6.44531 96.0449 -3.75977 91.0156 -3.75977 L 22.7051 -3.75977 C 17.5293 -3.75977 14.8438 -6.44531 14.8438 -11.6699 L 14.8438 -25.0977 C 14.8438 -25.7324 14.3555 -26.2207 13.7207 -26.2207 C 13.1348 -26.2207 12.6465 -25.7324 12.6465 -25.0977 L 12.6465 -11.5234 C 12.6465 -5.0293 16.0645 -1.5625 22.6074 -1.5625 Z"/>
  </g>
 </g>
</svg>
